<?xml version="1.0" encoding="UTF-8" standalone="no"?>
<!DOCTYPE svg PUBLIC "-//W3C//DTD SVG 1.1//EN" "http://www.w3.org/Graphics/SVG/1.1/DTD/svg11.dtd">
<svg width="100%" height="100%" viewBox="0 0 440 130" version="1.1" xmlns="http://www.w3.org/2000/svg" xmlns:xlink="http://www.w3.org/1999/xlink" xml:space="preserve" xmlns:serif="http://www.serif.com/" style="fill-rule:evenodd;clip-rule:evenodd;stroke-linejoin:round;stroke-miterlimit:2;">
    <g id="Header" transform="matrix(1.23775,0,0,1.06614,-324.111,-214.603)">
        <rect x="261.855" y="201.29" width="355.484" height="121.935" style="fill:none;"/>
        <g transform="matrix(0.807918,0,0,0.937965,276.449,191.605)">
            <g transform="matrix(12,0,0,12,136.96,105.582)">
                <path d="M0.047,-0.664L0.074,-0.688L0.216,-0.688L0.176,-0.365C0.191,-0.39 0.209,-0.412 0.232,-0.431C0.255,-0.449 0.284,-0.458 0.319,-0.458C0.372,-0.458 0.411,-0.44 0.438,-0.403C0.465,-0.366 0.478,-0.321 0.478,-0.268C0.478,-0.227 0.471,-0.185 0.456,-0.141C0.441,-0.099 0.418,-0.063 0.387,-0.034C0.356,-0.005 0.315,0.01 0.264,0.01C0.198,0.01 0.155,-0.017 0.135,-0.07C0.132,-0.059 0.13,-0.047 0.127,-0.035C0.124,-0.023 0.12,-0.011 0.117,-0L0.014,-0C0.021,-0.022 0.027,-0.045 0.033,-0.068C0.039,-0.091 0.043,-0.113 0.046,-0.135L0.103,-0.606L0.04,-0.606L0.047,-0.664ZM0.252,-0.072C0.291,-0.072 0.32,-0.093 0.339,-0.134C0.358,-0.174 0.367,-0.215 0.367,-0.254C0.367,-0.289 0.36,-0.318 0.347,-0.341C0.334,-0.364 0.313,-0.375 0.284,-0.375C0.248,-0.375 0.22,-0.36 0.199,-0.33C0.178,-0.299 0.166,-0.268 0.161,-0.235L0.16,-0.229L0.154,-0.183C0.153,-0.15 0.162,-0.124 0.18,-0.103C0.197,-0.082 0.221,-0.072 0.252,-0.072Z" style="fill:#a6a6a6;fill-rule:nonzero;"/>
            </g>
            <g transform="matrix(12,0,0,12,142.792,105.582)">
                <path d="M0.245,-0.123L0.251,-0.123C0.286,-0.168 0.312,-0.208 0.329,-0.244C0.346,-0.28 0.354,-0.317 0.354,-0.356C0.354,-0.37 0.353,-0.385 0.35,-0.401C0.347,-0.416 0.342,-0.432 0.335,-0.449L0.452,-0.449C0.46,-0.41 0.46,-0.368 0.453,-0.325C0.445,-0.281 0.424,-0.235 0.39,-0.188C0.377,-0.169 0.359,-0.146 0.336,-0.119C0.313,-0.092 0.29,-0.065 0.266,-0.04L0.241,0.131L0.31,0.131L0.302,0.189L0.275,0.213L0.055,0.213L0.063,0.155L0.09,0.131L0.138,0.131L0.164,-0.043L0.06,-0.366L0.009,-0.366L0.017,-0.425L0.044,-0.449L0.245,-0.449L0.238,-0.39L0.21,-0.366L0.17,-0.366L0.245,-0.123Z" style="fill:#a6a6a6;fill-rule:nonzero;"/>
            </g>
            <g transform="matrix(12,0,0,12,150.676,105.582)">
                <path d="M0.477,-0L0.009,-0L0.019,-0.095L0.092,-0.095L0.14,-0.555L0.067,-0.555L0.077,-0.65L0.354,-0.65L0.344,-0.555L0.247,-0.555L0.199,-0.095L0.396,-0.095L0.429,-0.23L0.519,-0.222L0.477,-0Z" style="fill:#a6a6a6;fill-rule:nonzero;"/>
            </g>
            <g transform="matrix(12,0,0,12,156.976,105.582)">
                <path d="M0.222,-0.072C0.255,-0.072 0.278,-0.081 0.292,-0.099C0.305,-0.117 0.315,-0.135 0.321,-0.152L0.404,-0.135C0.397,-0.096 0.376,-0.063 0.342,-0.034C0.308,-0.005 0.263,0.01 0.206,0.01C0.152,0.01 0.108,-0.006 0.073,-0.039C0.038,-0.071 0.02,-0.121 0.02,-0.189C0.02,-0.262 0.041,-0.326 0.084,-0.379C0.126,-0.432 0.184,-0.458 0.257,-0.458C0.302,-0.458 0.339,-0.447 0.369,-0.426C0.398,-0.404 0.413,-0.375 0.413,-0.339C0.413,-0.306 0.401,-0.277 0.378,-0.254C0.354,-0.231 0.312,-0.213 0.253,-0.2C0.236,-0.196 0.217,-0.193 0.197,-0.19C0.176,-0.187 0.155,-0.184 0.132,-0.181C0.133,-0.146 0.141,-0.119 0.154,-0.101C0.167,-0.082 0.19,-0.072 0.222,-0.072ZM0.202,-0.256C0.246,-0.265 0.274,-0.277 0.286,-0.29C0.299,-0.303 0.305,-0.317 0.305,-0.332C0.305,-0.351 0.299,-0.364 0.288,-0.372C0.276,-0.379 0.261,-0.383 0.244,-0.383C0.209,-0.383 0.184,-0.369 0.167,-0.341C0.15,-0.312 0.14,-0.28 0.135,-0.245C0.148,-0.246 0.16,-0.248 0.171,-0.251C0.182,-0.253 0.193,-0.255 0.202,-0.256Z" style="fill:#a6a6a6;fill-rule:nonzero;"/>
            </g>
            <g transform="matrix(12,0,0,12,162.184,105.582)">
                <path d="M0.021,-0.192C0.021,-0.261 0.041,-0.323 0.08,-0.377C0.118,-0.431 0.178,-0.458 0.259,-0.458C0.326,-0.458 0.375,-0.438 0.405,-0.399C0.435,-0.36 0.45,-0.31 0.45,-0.251C0.45,-0.175 0.428,-0.113 0.385,-0.064C0.341,-0.015 0.282,0.01 0.209,0.01C0.148,0.01 0.102,-0.008 0.07,-0.044C0.037,-0.08 0.021,-0.129 0.021,-0.192ZM0.132,-0.2C0.132,-0.161 0.138,-0.13 0.15,-0.107C0.162,-0.084 0.185,-0.072 0.219,-0.072C0.262,-0.072 0.293,-0.09 0.312,-0.125C0.331,-0.16 0.34,-0.201 0.34,-0.248C0.34,-0.333 0.309,-0.375 0.248,-0.375C0.171,-0.375 0.132,-0.317 0.132,-0.2Z" style="fill:#a6a6a6;fill-rule:nonzero;"/>
            </g>
            <g transform="matrix(12,0,0,12,167.884,105.582)">
                <path d="M0.059,-0.449L0.188,-0.449L0.191,-0.362C0.206,-0.391 0.226,-0.415 0.25,-0.432C0.274,-0.449 0.303,-0.458 0.338,-0.458C0.379,-0.458 0.413,-0.445 0.439,-0.419C0.465,-0.393 0.475,-0.352 0.468,-0.297L0.442,-0.082L0.507,-0.082L0.499,-0.022L0.472,-0L0.33,-0L0.362,-0.258C0.367,-0.301 0.364,-0.331 0.351,-0.348C0.338,-0.366 0.318,-0.375 0.291,-0.375C0.258,-0.375 0.233,-0.364 0.215,-0.341C0.197,-0.318 0.186,-0.29 0.182,-0.257L0.182,-0.258L0.15,-0L0.048,-0L0.093,-0.366L0.024,-0.366L0.031,-0.425L0.059,-0.449Z" style="fill:#a6a6a6;fill-rule:nonzero;"/>
            </g>
            <g transform="matrix(12,0,0,12,174.208,105.582)">
                <path d="M0.478,-0.449C0.471,-0.424 0.464,-0.398 0.458,-0.373C0.451,-0.348 0.447,-0.322 0.444,-0.297L0.417,-0.082L0.478,-0.082L0.471,-0.022L0.445,-0L0.321,-0L0.319,-0.091C0.305,-0.064 0.286,-0.04 0.262,-0.02C0.238,-0 0.207,0.01 0.17,0.01C0.121,0.01 0.084,-0.008 0.059,-0.044C0.034,-0.08 0.021,-0.126 0.021,-0.181C0.021,-0.22 0.028,-0.262 0.042,-0.305C0.056,-0.347 0.078,-0.384 0.109,-0.413C0.139,-0.443 0.179,-0.458 0.229,-0.458C0.296,-0.458 0.339,-0.43 0.358,-0.374C0.361,-0.387 0.364,-0.399 0.367,-0.411C0.37,-0.424 0.374,-0.436 0.379,-0.449L0.478,-0.449ZM0.244,-0.375C0.203,-0.375 0.174,-0.356 0.157,-0.317C0.14,-0.278 0.132,-0.237 0.132,-0.194C0.132,-0.113 0.158,-0.072 0.209,-0.072C0.24,-0.072 0.266,-0.086 0.287,-0.114C0.308,-0.141 0.322,-0.17 0.329,-0.2L0.337,-0.261C0.338,-0.296 0.33,-0.324 0.312,-0.344C0.293,-0.365 0.271,-0.375 0.244,-0.375Z" style="fill:#a6a6a6;fill-rule:nonzero;"/>
            </g>
            <g transform="matrix(12,0,0,12,180.304,105.582)">
                <path d="M0.069,-0.449L0.191,-0.449L0.195,-0.334C0.206,-0.365 0.22,-0.393 0.239,-0.419C0.258,-0.445 0.28,-0.458 0.307,-0.458C0.326,-0.458 0.343,-0.452 0.358,-0.44L0.341,-0.331C0.324,-0.341 0.306,-0.346 0.289,-0.346C0.266,-0.346 0.247,-0.338 0.23,-0.322C0.213,-0.306 0.202,-0.285 0.195,-0.258L0.171,-0.082L0.26,-0.082L0.252,-0.024L0.225,-0L-0.005,-0L0.003,-0.058L0.03,-0.082L0.068,-0.082L0.102,-0.366L0.035,-0.366L0.042,-0.425L0.069,-0.449Z" style="fill:#a6a6a6;fill-rule:nonzero;"/>
            </g>
            <g transform="matrix(12,0,0,12,184.444,105.582)">
                <path d="M0.3,-0.664L0.327,-0.688L0.496,-0.688L0.422,-0.082L0.486,-0.082L0.479,-0.022L0.452,-0L0.325,-0L0.325,-0.097C0.31,-0.068 0.289,-0.043 0.263,-0.022C0.237,-0.001 0.205,0.01 0.166,0.01C0.117,0.01 0.08,-0.008 0.056,-0.044C0.032,-0.08 0.02,-0.125 0.02,-0.178C0.02,-0.219 0.027,-0.262 0.042,-0.305C0.057,-0.347 0.08,-0.384 0.111,-0.413C0.142,-0.443 0.183,-0.458 0.232,-0.458C0.292,-0.458 0.333,-0.435 0.356,-0.389L0.383,-0.606L0.293,-0.606L0.3,-0.664ZM0.248,-0.375C0.207,-0.375 0.177,-0.356 0.159,-0.317C0.14,-0.278 0.131,-0.236 0.131,-0.191C0.131,-0.154 0.137,-0.125 0.149,-0.104C0.161,-0.083 0.18,-0.072 0.206,-0.072C0.237,-0.072 0.265,-0.086 0.289,-0.115C0.312,-0.143 0.327,-0.172 0.333,-0.203L0.341,-0.268C0.342,-0.301 0.333,-0.328 0.314,-0.346C0.295,-0.366 0.273,-0.375 0.248,-0.375Z" style="fill:#a6a6a6;fill-rule:nonzero;"/>
            </g>
            <g transform="matrix(12,0,0,12,190.576,105.582)">
                <path d="M0.021,-0.192C0.021,-0.261 0.041,-0.323 0.08,-0.377C0.118,-0.431 0.178,-0.458 0.259,-0.458C0.326,-0.458 0.375,-0.438 0.405,-0.399C0.435,-0.36 0.45,-0.31 0.45,-0.251C0.45,-0.175 0.428,-0.113 0.385,-0.064C0.341,-0.015 0.282,0.01 0.209,0.01C0.148,0.01 0.102,-0.008 0.07,-0.044C0.037,-0.08 0.021,-0.129 0.021,-0.192ZM0.132,-0.2C0.132,-0.161 0.138,-0.13 0.15,-0.107C0.162,-0.084 0.185,-0.072 0.219,-0.072C0.262,-0.072 0.293,-0.09 0.312,-0.125C0.331,-0.16 0.34,-0.201 0.34,-0.248C0.34,-0.333 0.309,-0.375 0.248,-0.375C0.171,-0.375 0.132,-0.317 0.132,-0.2Z" style="fill:#a6a6a6;fill-rule:nonzero;"/>
            </g>
            <g transform="matrix(12,0,0,12,198.532,105.582)">
                <path d="M0.02,-0.095L0.092,-0.095L0.14,-0.555L0.068,-0.555L0.078,-0.65L0.355,-0.65C0.426,-0.65 0.48,-0.632 0.515,-0.597C0.55,-0.561 0.568,-0.515 0.568,-0.459C0.568,-0.382 0.543,-0.325 0.494,-0.285C0.445,-0.247 0.386,-0.227 0.319,-0.227L0.213,-0.227L0.199,-0.095L0.3,-0.095L0.29,-0L0.01,-0L0.02,-0.095ZM0.31,-0.321C0.361,-0.321 0.397,-0.334 0.42,-0.359C0.442,-0.384 0.453,-0.415 0.453,-0.454C0.453,-0.486 0.444,-0.511 0.426,-0.529C0.407,-0.546 0.376,-0.555 0.333,-0.555L0.247,-0.555L0.223,-0.321L0.31,-0.321Z" style="fill:#a6a6a6;fill-rule:nonzero;"/>
            </g>
            <g transform="matrix(12,0,0,12,205.144,105.582)">
                <path d="M0.222,-0.072C0.255,-0.072 0.278,-0.081 0.292,-0.099C0.305,-0.117 0.315,-0.135 0.321,-0.152L0.404,-0.135C0.397,-0.096 0.376,-0.063 0.342,-0.034C0.308,-0.005 0.263,0.01 0.206,0.01C0.152,0.01 0.108,-0.006 0.073,-0.039C0.038,-0.071 0.02,-0.121 0.02,-0.189C0.02,-0.262 0.041,-0.326 0.084,-0.379C0.126,-0.432 0.184,-0.458 0.257,-0.458C0.302,-0.458 0.339,-0.447 0.369,-0.426C0.398,-0.404 0.413,-0.375 0.413,-0.339C0.413,-0.306 0.401,-0.277 0.378,-0.254C0.354,-0.231 0.312,-0.213 0.253,-0.2C0.236,-0.196 0.217,-0.193 0.197,-0.19C0.176,-0.187 0.155,-0.184 0.132,-0.181C0.133,-0.146 0.141,-0.119 0.154,-0.101C0.167,-0.082 0.19,-0.072 0.222,-0.072ZM0.202,-0.256C0.246,-0.265 0.274,-0.277 0.286,-0.29C0.299,-0.303 0.305,-0.317 0.305,-0.332C0.305,-0.351 0.299,-0.364 0.288,-0.372C0.276,-0.379 0.261,-0.383 0.244,-0.383C0.209,-0.383 0.184,-0.369 0.167,-0.341C0.15,-0.312 0.14,-0.28 0.135,-0.245C0.148,-0.246 0.16,-0.248 0.171,-0.251C0.182,-0.253 0.193,-0.255 0.202,-0.256Z" style="fill:#a6a6a6;fill-rule:nonzero;"/>
            </g>
            <g transform="matrix(12,0,0,12,210.352,105.582)">
                <path d="M0.192,-0.072C0.249,-0.072 0.277,-0.091 0.277,-0.128C0.277,-0.151 0.266,-0.166 0.243,-0.173C0.22,-0.18 0.193,-0.188 0.162,-0.197C0.133,-0.205 0.106,-0.217 0.082,-0.234C0.057,-0.25 0.045,-0.278 0.045,-0.317C0.045,-0.367 0.064,-0.403 0.102,-0.425C0.139,-0.447 0.181,-0.458 0.226,-0.458C0.253,-0.458 0.281,-0.455 0.312,-0.448C0.343,-0.441 0.369,-0.431 0.392,-0.417L0.391,-0.306L0.308,-0.296L0.306,-0.358C0.279,-0.369 0.253,-0.375 0.229,-0.375C0.209,-0.375 0.191,-0.371 0.175,-0.363C0.16,-0.354 0.152,-0.341 0.152,-0.324C0.152,-0.308 0.16,-0.297 0.177,-0.29C0.193,-0.282 0.216,-0.275 0.247,-0.268C0.277,-0.26 0.308,-0.248 0.339,-0.231C0.37,-0.214 0.385,-0.183 0.385,-0.136C0.385,-0.087 0.367,-0.051 0.331,-0.027C0.295,-0.002 0.251,0.01 0.199,0.01C0.17,0.01 0.137,0.006 0.1,-0.001C0.063,-0.008 0.032,-0.019 0.008,-0.034L0.036,-0.15L0.118,-0.142L0.111,-0.086C0.123,-0.081 0.137,-0.077 0.153,-0.075C0.168,-0.073 0.181,-0.072 0.192,-0.072Z" style="fill:#a6a6a6;fill-rule:nonzero;"/>
            </g>
            <g transform="matrix(12,0,0,12,215.452,105.582)">
                <path d="M0.192,-0.072C0.249,-0.072 0.277,-0.091 0.277,-0.128C0.277,-0.151 0.266,-0.166 0.243,-0.173C0.22,-0.18 0.193,-0.188 0.162,-0.197C0.133,-0.205 0.106,-0.217 0.082,-0.234C0.057,-0.25 0.045,-0.278 0.045,-0.317C0.045,-0.367 0.064,-0.403 0.102,-0.425C0.139,-0.447 0.181,-0.458 0.226,-0.458C0.253,-0.458 0.281,-0.455 0.312,-0.448C0.343,-0.441 0.369,-0.431 0.392,-0.417L0.391,-0.306L0.308,-0.296L0.306,-0.358C0.279,-0.369 0.253,-0.375 0.229,-0.375C0.209,-0.375 0.191,-0.371 0.175,-0.363C0.16,-0.354 0.152,-0.341 0.152,-0.324C0.152,-0.308 0.16,-0.297 0.177,-0.29C0.193,-0.282 0.216,-0.275 0.247,-0.268C0.277,-0.26 0.308,-0.248 0.339,-0.231C0.37,-0.214 0.385,-0.183 0.385,-0.136C0.385,-0.087 0.367,-0.051 0.331,-0.027C0.295,-0.002 0.251,0.01 0.199,0.01C0.17,0.01 0.137,0.006 0.1,-0.001C0.063,-0.008 0.032,-0.019 0.008,-0.034L0.036,-0.15L0.118,-0.142L0.111,-0.086C0.123,-0.081 0.137,-0.077 0.153,-0.075C0.168,-0.073 0.181,-0.072 0.192,-0.072Z" style="fill:#a6a6a6;fill-rule:nonzero;"/>
            </g>
            <g transform="matrix(12,0,0,12,220.552,105.582)">
                <path d="M0.021,-0.192C0.021,-0.261 0.041,-0.323 0.08,-0.377C0.118,-0.431 0.178,-0.458 0.259,-0.458C0.326,-0.458 0.375,-0.438 0.405,-0.399C0.435,-0.36 0.45,-0.31 0.45,-0.251C0.45,-0.175 0.428,-0.113 0.385,-0.064C0.341,-0.015 0.282,0.01 0.209,0.01C0.148,0.01 0.102,-0.008 0.07,-0.044C0.037,-0.08 0.021,-0.129 0.021,-0.192ZM0.132,-0.2C0.132,-0.161 0.138,-0.13 0.15,-0.107C0.162,-0.084 0.185,-0.072 0.219,-0.072C0.262,-0.072 0.293,-0.09 0.312,-0.125C0.331,-0.16 0.34,-0.201 0.34,-0.248C0.34,-0.333 0.309,-0.375 0.248,-0.375C0.171,-0.375 0.132,-0.317 0.132,-0.2Z" style="fill:#a6a6a6;fill-rule:nonzero;"/>
            </g>
            <g transform="matrix(12,0,0,12,226.252,105.582)">
                <path d="M0.478,-0.449C0.471,-0.424 0.464,-0.398 0.458,-0.373C0.451,-0.348 0.447,-0.322 0.444,-0.297L0.417,-0.082L0.478,-0.082L0.471,-0.022L0.445,-0L0.321,-0L0.319,-0.091C0.305,-0.064 0.286,-0.04 0.262,-0.02C0.238,-0 0.207,0.01 0.17,0.01C0.121,0.01 0.084,-0.008 0.059,-0.044C0.034,-0.08 0.021,-0.126 0.021,-0.181C0.021,-0.22 0.028,-0.262 0.042,-0.305C0.056,-0.347 0.078,-0.384 0.109,-0.413C0.139,-0.443 0.179,-0.458 0.229,-0.458C0.296,-0.458 0.339,-0.43 0.358,-0.374C0.361,-0.387 0.364,-0.399 0.367,-0.411C0.37,-0.424 0.374,-0.436 0.379,-0.449L0.478,-0.449ZM0.244,-0.375C0.203,-0.375 0.174,-0.356 0.157,-0.317C0.14,-0.278 0.132,-0.237 0.132,-0.194C0.132,-0.113 0.158,-0.072 0.209,-0.072C0.24,-0.072 0.266,-0.086 0.287,-0.114C0.308,-0.141 0.322,-0.17 0.329,-0.2L0.337,-0.261C0.338,-0.296 0.33,-0.324 0.312,-0.344C0.293,-0.365 0.271,-0.375 0.244,-0.375Z" style="fill:#a6a6a6;fill-rule:nonzero;"/>
            </g>
        </g>
        <g id="Background" transform="matrix(0.254907,0,0,0.295938,222.613,183.55)">
            <path d="M356,68C371.833,68.098 490.333,69.333 522,102C553.667,134.667 550,262 550,262C549.902,277.833 548.667,396.333 516,428C483.333,459.667 356,456 356,456C340.167,455.902 221.667,454.667 190,422C158.333,389.333 162,262 162,262C162.098,246.167 163.333,127.667 196,96C228.667,64.333 356,68 356,68Z" style="fill:#e2a850;"/>
        </g>
        <g transform="matrix(0.807918,0,0,0.937965,264.809,228.961)">
            <g transform="matrix(64,0,0,64,146.799,51.5637)">
                <path d="M0.704,-0.538C0.763,-0.538 0.807,-0.527 0.835,-0.506C0.862,-0.485 0.876,-0.447 0.876,-0.394L0.876,-0.015C0.876,-0.005 0.871,-0 0.861,-0L0.812,-0C0.801,-0 0.796,-0.005 0.796,-0.015L0.796,-0.385C0.796,-0.418 0.789,-0.442 0.776,-0.455C0.762,-0.468 0.737,-0.474 0.702,-0.474C0.681,-0.474 0.661,-0.473 0.641,-0.47C0.62,-0.468 0.601,-0.466 0.584,-0.463C0.567,-0.46 0.552,-0.456 0.54,-0.453C0.527,-0.45 0.519,-0.447 0.514,-0.446L0.514,-0.015C0.514,-0.005 0.509,-0 0.5,-0L0.451,-0C0.441,-0 0.436,-0.005 0.436,-0.015L0.436,-0.385C0.436,-0.418 0.429,-0.442 0.415,-0.455C0.401,-0.468 0.376,-0.474 0.341,-0.474C0.32,-0.474 0.3,-0.473 0.28,-0.47C0.259,-0.468 0.241,-0.466 0.224,-0.463C0.206,-0.46 0.192,-0.456 0.18,-0.453C0.167,-0.45 0.159,-0.447 0.154,-0.446L0.154,-0.015C0.154,-0.005 0.149,-0 0.14,-0L0.09,-0C0.08,-0 0.075,-0.005 0.075,-0.015L0.075,-0.43C0.075,-0.44 0.075,-0.449 0.076,-0.456C0.077,-0.463 0.079,-0.47 0.082,-0.476C0.085,-0.482 0.091,-0.487 0.098,-0.492C0.105,-0.497 0.114,-0.501 0.127,-0.505C0.14,-0.51 0.155,-0.514 0.173,-0.518C0.192,-0.522 0.211,-0.526 0.231,-0.529C0.25,-0.532 0.27,-0.534 0.29,-0.536C0.309,-0.537 0.327,-0.538 0.343,-0.538C0.406,-0.538 0.452,-0.525 0.479,-0.5C0.493,-0.505 0.51,-0.51 0.529,-0.515C0.548,-0.52 0.569,-0.524 0.59,-0.527C0.611,-0.53 0.631,-0.533 0.651,-0.535C0.671,-0.537 0.689,-0.538 0.704,-0.538Z" style="fill:#404040;fill-rule:nonzero;"/>
            </g>
            <g transform="matrix(64,0,0,64,206.895,51.5637)">
                <path d="M0.293,-0.537C0.329,-0.537 0.359,-0.535 0.382,-0.531C0.405,-0.526 0.424,-0.52 0.439,-0.512C0.452,-0.505 0.462,-0.498 0.469,-0.489C0.475,-0.48 0.481,-0.47 0.484,-0.459C0.487,-0.448 0.489,-0.437 0.49,-0.426C0.491,-0.415 0.491,-0.403 0.491,-0.391L0.491,-0.104C0.491,-0.087 0.49,-0.072 0.488,-0.061C0.485,-0.05 0.481,-0.04 0.475,-0.033C0.469,-0.026 0.461,-0.02 0.45,-0.015C0.439,-0.01 0.425,-0.006 0.408,-0.002C0.393,0.001 0.375,0.005 0.352,0.008C0.329,0.011 0.305,0.013 0.278,0.013C0.257,0.013 0.233,0.012 0.206,0.01C0.179,0.008 0.154,0.002 0.131,-0.009C0.108,-0.019 0.088,-0.035 0.073,-0.058C0.057,-0.08 0.049,-0.111 0.049,-0.152C0.049,-0.184 0.054,-0.21 0.063,-0.229C0.072,-0.248 0.085,-0.264 0.102,-0.275C0.119,-0.285 0.138,-0.294 0.161,-0.299C0.183,-0.304 0.207,-0.309 0.232,-0.313L0.411,-0.34L0.411,-0.387C0.411,-0.403 0.409,-0.417 0.406,-0.43C0.403,-0.443 0.392,-0.452 0.375,-0.459C0.366,-0.463 0.354,-0.466 0.339,-0.468C0.324,-0.47 0.306,-0.471 0.284,-0.471C0.245,-0.471 0.21,-0.467 0.179,-0.46C0.147,-0.453 0.12,-0.446 0.099,-0.441C0.09,-0.438 0.085,-0.441 0.083,-0.448L0.074,-0.493C0.073,-0.498 0.074,-0.501 0.077,-0.503C0.08,-0.505 0.082,-0.506 0.084,-0.507C0.092,-0.509 0.103,-0.512 0.117,-0.516C0.131,-0.519 0.147,-0.523 0.166,-0.526C0.185,-0.529 0.205,-0.531 0.227,-0.534C0.248,-0.536 0.27,-0.537 0.293,-0.537ZM0.233,-0.247C0.218,-0.245 0.204,-0.242 0.192,-0.239C0.179,-0.236 0.169,-0.231 0.16,-0.224C0.151,-0.217 0.143,-0.208 0.139,-0.197C0.134,-0.186 0.131,-0.171 0.131,-0.153C0.131,-0.128 0.136,-0.108 0.145,-0.095C0.154,-0.081 0.166,-0.07 0.181,-0.064C0.195,-0.057 0.211,-0.052 0.228,-0.051C0.245,-0.05 0.262,-0.049 0.279,-0.049C0.301,-0.049 0.323,-0.051 0.346,-0.054C0.369,-0.057 0.391,-0.062 0.412,-0.069L0.412,-0.275L0.233,-0.247Z" style="fill:#404040;fill-rule:nonzero;"/>
            </g>
            <g transform="matrix(64,0,0,64,242.351,51.5637)">
                <path d="M0.141,-0.752C0.144,-0.753 0.147,-0.752 0.15,-0.75C0.153,-0.747 0.154,-0.743 0.154,-0.739L0.154,-0.292L0.205,-0.292L0.395,-0.519C0.396,-0.521 0.398,-0.523 0.401,-0.524C0.404,-0.525 0.406,-0.525 0.408,-0.525L0.477,-0.525C0.482,-0.525 0.485,-0.523 0.486,-0.52C0.487,-0.516 0.486,-0.513 0.485,-0.511L0.275,-0.268L0.502,-0.014C0.503,-0.013 0.504,-0.011 0.504,-0.009C0.504,-0.003 0.501,-0 0.494,-0L0.413,-0C0.41,-0 0.407,-0.001 0.406,-0.002C0.404,-0.003 0.402,-0.005 0.401,-0.006L0.205,-0.232L0.154,-0.232L0.154,-0.015C0.154,-0.005 0.149,-0 0.14,-0L0.09,-0C0.08,-0 0.075,-0.005 0.075,-0.015L0.075,-0.723C0.075,-0.731 0.079,-0.736 0.087,-0.738L0.141,-0.752Z" style="fill:#404040;fill-rule:nonzero;"/>
            </g>
            <g transform="matrix(64,0,0,64,273.967,51.5637)">
                <path d="M0.281,-0.538C0.334,-0.538 0.376,-0.53 0.407,-0.515C0.439,-0.5 0.463,-0.478 0.48,-0.449C0.493,-0.426 0.502,-0.4 0.506,-0.37C0.51,-0.34 0.512,-0.308 0.512,-0.273L0.512,-0.224C0.512,-0.221 0.51,-0.219 0.507,-0.216C0.504,-0.213 0.502,-0.211 0.499,-0.211L0.132,-0.211C0.132,-0.183 0.135,-0.161 0.14,-0.144C0.145,-0.127 0.152,-0.112 0.163,-0.099C0.178,-0.08 0.197,-0.068 0.222,-0.061C0.246,-0.054 0.276,-0.051 0.311,-0.051C0.342,-0.051 0.368,-0.053 0.389,-0.058C0.41,-0.063 0.433,-0.069 0.456,-0.076C0.459,-0.077 0.461,-0.078 0.462,-0.078L0.465,-0.078C0.469,-0.078 0.472,-0.075 0.474,-0.07L0.485,-0.031C0.486,-0.026 0.486,-0.023 0.484,-0.021C0.481,-0.019 0.478,-0.017 0.475,-0.016C0.455,-0.007 0.43,-0 0.399,0.005C0.368,0.01 0.336,0.013 0.303,0.013C0.254,0.013 0.213,0.007 0.181,-0.004C0.148,-0.015 0.122,-0.033 0.102,-0.056C0.083,-0.079 0.069,-0.107 0.061,-0.141C0.053,-0.176 0.049,-0.216 0.049,-0.262C0.049,-0.304 0.052,-0.342 0.058,-0.376C0.063,-0.41 0.074,-0.439 0.091,-0.463C0.108,-0.487 0.131,-0.505 0.162,-0.519C0.192,-0.532 0.232,-0.538 0.281,-0.538ZM0.279,-0.475C0.239,-0.475 0.209,-0.469 0.188,-0.457C0.167,-0.444 0.152,-0.422 0.143,-0.39C0.138,-0.371 0.135,-0.353 0.134,-0.334C0.133,-0.315 0.132,-0.296 0.131,-0.278L0.429,-0.278C0.428,-0.297 0.427,-0.316 0.426,-0.335C0.425,-0.353 0.421,-0.371 0.416,-0.39C0.407,-0.422 0.393,-0.444 0.372,-0.457C0.35,-0.469 0.32,-0.475 0.279,-0.475Z" style="fill:#404040;fill-rule:nonzero;"/>
            </g>
            <path d="M319.279,17.964C319.919,17.964 320.239,18.284 320.239,18.924L320.239,50.604C320.239,51.244 319.919,51.564 319.279,51.564L316.143,51.564C315.503,51.564 315.183,51.244 315.183,50.604L315.183,18.924C315.183,18.284 315.503,17.964 316.143,17.964L319.279,17.964ZM319.279,3.436C319.919,3.436 320.239,3.756 320.239,4.396L320.239,11.308C320.239,11.905 319.919,12.204 319.279,12.204L316.143,12.204C315.503,12.204 315.183,11.905 315.183,11.308L315.183,4.396C315.183,3.756 315.503,3.436 316.143,3.436L319.279,3.436Z" style="fill:#404040;fill-rule:nonzero;stroke:#404040;stroke-width:2px;"/>
            <path d="M343.791,17.132C344.73,17.132 345.701,17.185 346.703,17.292C347.706,17.398 348.655,17.537 349.551,17.708C350.447,17.878 351.258,18.06 351.983,18.252C352.709,18.444 353.263,18.625 353.647,18.796L354.031,18.988C354.202,19.073 354.287,19.265 354.287,19.564C354.287,19.692 354.266,19.841 354.223,20.012L353.775,22.124C353.647,22.636 353.391,22.892 353.007,22.892C352.879,22.892 352.751,22.87 352.623,22.828L352.175,22.7C351.791,22.572 351.311,22.433 350.735,22.284C350.159,22.134 349.509,21.985 348.783,21.836C348.058,21.686 347.29,21.558 346.479,21.452C345.669,21.345 344.858,21.292 344.047,21.292C342.127,21.292 340.517,21.516 339.215,21.964C337.914,22.412 336.879,23.158 336.111,24.204C335.343,25.249 334.789,26.625 334.447,28.332C334.106,30.038 333.935,32.172 333.935,34.732C333.935,37.292 334.106,39.436 334.447,41.164C334.789,42.892 335.343,44.278 336.111,45.324C336.879,46.369 337.914,47.116 339.215,47.564C340.517,48.012 342.127,48.236 344.047,48.236C344.901,48.236 345.765,48.182 346.639,48.076C347.514,47.969 348.335,47.841 349.103,47.692C349.871,47.542 350.565,47.382 351.183,47.212C351.802,47.041 352.282,46.913 352.623,46.828C352.794,46.785 352.922,46.764 353.007,46.764C353.391,46.764 353.647,46.998 353.775,47.468L354.223,49.516C354.266,49.686 354.287,49.814 354.287,49.9C354.287,50.198 354.202,50.401 354.031,50.508C353.861,50.614 353.733,50.689 353.647,50.732C353.263,50.902 352.709,51.084 351.983,51.276C351.258,51.468 350.447,51.649 349.551,51.82C348.655,51.99 347.706,52.129 346.703,52.236C345.701,52.342 344.73,52.396 343.791,52.396C340.89,52.396 338.469,52.044 336.527,51.34C334.586,50.636 333.039,49.558 331.887,48.108C330.735,46.657 329.914,44.822 329.423,42.604C328.933,40.385 328.687,37.782 328.687,34.796C328.687,31.809 328.933,29.206 329.423,26.988C329.914,24.769 330.735,22.924 331.887,21.452C333.039,19.98 334.586,18.892 336.527,18.188C338.469,17.484 340.89,17.132 343.791,17.132Z" style="fill:#404040;fill-rule:nonzero;stroke:#404040;stroke-width:2px;"/>
            <path d="M374.447,17.132C377.818,17.132 380.495,17.601 382.479,18.54C384.463,19.478 385.967,20.748 386.991,22.348C388.015,23.948 388.677,25.814 388.975,27.948C389.274,30.081 389.423,32.364 389.423,34.796C389.423,37.185 389.274,39.446 388.975,41.58C388.677,43.713 388.015,45.58 386.991,47.18C385.967,48.78 384.463,50.049 382.479,50.988C380.495,51.926 377.818,52.396 374.447,52.396C371.119,52.396 368.463,51.926 366.479,50.988C364.495,50.049 362.981,48.78 361.935,47.18C360.89,45.58 360.218,43.713 359.919,41.58C359.621,39.446 359.471,37.185 359.471,34.796C359.471,32.364 359.621,30.081 359.919,27.948C360.218,25.814 360.89,23.948 361.935,22.348C362.981,20.748 364.495,19.478 366.479,18.54C368.463,17.601 371.119,17.132 374.447,17.132ZM374.447,21.228C372.143,21.228 370.341,21.558 369.039,22.22C367.738,22.881 366.767,23.798 366.127,24.972C365.487,26.145 365.103,27.564 364.975,29.228C364.847,30.892 364.783,32.748 364.783,34.796C364.783,36.801 364.847,38.636 364.975,40.3C365.103,41.964 365.487,43.393 366.127,44.588C366.767,45.782 367.738,46.7 369.039,47.34C370.341,47.98 372.143,48.3 374.447,48.3C376.751,48.3 378.554,47.98 379.855,47.34C381.157,46.7 382.127,45.782 382.767,44.588C383.407,43.393 383.791,41.964 383.919,40.3C384.047,38.636 384.111,36.801 384.111,34.796C384.111,32.748 384.047,30.892 383.919,29.228C383.791,27.564 383.407,26.145 382.767,24.972C382.127,23.798 381.157,22.881 379.855,22.22C378.554,21.558 376.751,21.228 374.447,21.228Z" style="fill:#404040;fill-rule:nonzero;stroke:#404040;stroke-width:2px;"/>
            <path d="M414.063,17.132C417.861,17.132 420.645,17.814 422.415,19.18C424.186,20.545 425.071,22.934 425.071,26.348L425.071,50.604C425.071,51.244 424.751,51.564 424.111,51.564L420.975,51.564C420.335,51.564 420.015,51.244 420.015,50.604L420.015,26.924C420.015,24.79 419.567,23.308 418.671,22.476C417.775,21.644 416.197,21.228 413.935,21.228C412.613,21.228 411.301,21.302 409.999,21.452C408.698,21.601 407.503,21.772 406.415,21.964C405.327,22.156 404.389,22.358 403.599,22.572C402.81,22.785 402.266,22.934 401.967,23.02L401.967,50.604C401.967,51.244 401.669,51.564 401.071,51.564L397.871,51.564C397.231,51.564 396.911,51.244 396.911,50.604L396.911,24.044C396.911,23.404 396.933,22.849 396.975,22.38C397.018,21.91 397.146,21.484 397.359,21.1C397.573,20.716 397.903,20.374 398.351,20.076C398.799,19.777 399.429,19.5 400.239,19.244C401.05,18.945 402.042,18.668 403.215,18.412C404.389,18.156 405.605,17.932 406.863,17.74C408.122,17.548 409.381,17.398 410.639,17.292C411.898,17.185 413.039,17.132 414.063,17.132Z" style="fill:#404040;fill-rule:nonzero;stroke:#404040;stroke-width:2px;"/>
        </g>
        <g transform="matrix(2.15445,0,0,2.47891,-535.56,-617.151)">
            <path d="M405,357L387,340L387,364L394,359L400,368" style="fill:none;stroke:#fff;stroke-width:3.39px;stroke-linecap:round;stroke-miterlimit:1.5;"/>
        </g>
    </g>
</svg>
