<?xml version="1.0" encoding="UTF-8"?>
<svg width="440px" height="130px" viewBox="0 0 440 130" version="1.1" xmlns="http://www.w3.org/2000/svg" xmlns:xlink="http://www.w3.org/1999/xlink">
    <!-- Generator: Sketch 43.2 (39069) - http://www.bohemiancoding.com/sketch -->
    <title>Header</title>
    <desc>Created with Sketch.</desc>
    <defs></defs>
    <g id="Page-2" stroke="none" stroke-width="1" fill="none" fill-rule="evenodd">
        <g id="Header">
            <path d="M172.976,36.648 C173.914671,38.2693414 174.959994,40.2533216 176.112,42.6 C177.264006,44.9466784 178.437327,47.4106538 179.632,49.992 C180.826673,52.5733462 182.010661,55.19732 183.184,57.864 C184.357339,60.53068 185.434662,62.9946554 186.416,65.256 C187.397338,62.9946554 188.463994,60.53068 189.616,57.864 C190.768006,55.19732 191.941327,52.5733462 193.136,49.992 C194.330673,47.4106538 195.503994,44.9466784 196.656,42.6 C197.808006,40.2533216 198.853329,38.2693414 199.792,36.648 L207.088,36.648 C207.472002,39.8906829 207.834665,43.3359818 208.176,46.984 C208.517335,50.6320182 208.826665,54.3653142 209.104,58.184 C209.381335,62.0026858 209.637332,65.8426474 209.872,69.704 C210.106668,73.5653526 210.309332,77.3306483 210.48,81 L202.544,81 C202.373332,75.8373075 202.170668,70.5253606 201.936,65.064 C201.701332,59.6026394 201.349336,54.3120256 200.88,49.192 C200.410664,50.1733382 199.856003,51.3466598 199.216,52.712 C198.575997,54.0773402 197.893337,55.559992 197.168,57.16 C196.442663,58.760008 195.70667,60.4133248 194.96,62.12 C194.21333,63.8266752 193.488004,65.479992 192.784,67.08 C192.079996,68.680008 191.429336,70.1733264 190.832,71.56 C190.234664,72.9466736 189.722669,74.1306618 189.296,75.112 L183.28,75.112 C182.853331,74.1306618 182.341336,72.936007 181.744,71.528 C181.146664,70.119993 180.496004,68.616008 179.792,67.016 C179.087996,65.415992 178.36267,63.7626752 177.616,62.056 C176.86933,60.3493248 176.133337,58.7066746 175.408,57.128 C174.682663,55.5493254 174.000003,54.0666736 173.36,52.68 C172.719997,51.2933264 172.165336,50.1306714 171.696,49.192 C171.226664,54.3120256 170.874668,59.6026394 170.64,65.064 C170.405332,70.5253606 170.202668,75.8373075 170.032,81 L162.096,81 C162.266668,77.3306483 162.469332,73.533353 162.704,69.608 C162.938668,65.682647 163.194665,61.7893526 163.472,57.928 C163.749335,54.0666474 164.058665,50.3226848 164.4,46.696 C164.741335,43.0693152 165.103998,39.7200154 165.488,36.648 L172.976,36.648 Z M230.886153,75.56 C233.275499,75.56 235.088814,75.4320013 236.326153,75.176 L236.326153,66.6 C235.899485,66.4719994 235.280824,66.3440006 234.470153,66.216 C233.659483,66.0879994 232.763492,66.024 231.782153,66.024 C230.928816,66.024 230.064825,66.0879994 229.190153,66.216 C228.315482,66.3440006 227.526157,66.578665 226.822153,66.92 C226.11815,67.261335 225.552822,67.7413302 225.126153,68.36 C224.699485,68.9786698 224.486153,69.7573286 224.486153,70.696 C224.486153,72.5306758 225.062148,73.7999965 226.214153,74.504 C227.366159,75.2080035 228.923477,75.56 230.886153,75.56 Z M230.246153,46.696 C232.806166,46.696 234.960811,47.0159968 236.710153,47.656 C238.459496,48.2960032 239.856815,49.1919942 240.902153,50.344 C241.947492,51.4960058 242.694151,52.8933251 243.142153,54.536 C243.590156,56.1786749 243.814153,57.9813235 243.814153,59.944 L243.814153,80.232 C242.619481,80.4880013 240.816832,80.7973315 238.406153,81.16 C235.995475,81.5226685 233.275502,81.704 230.246153,81.704 C228.24081,81.704 226.406162,81.5120019 224.742153,81.128 C223.078145,80.7439981 221.659493,80.1253376 220.486153,79.272 C219.312814,78.4186624 218.39549,77.3093402 217.734153,75.944 C217.072817,74.5786598 216.742153,72.8933434 216.742153,70.888 C216.742153,68.9679904 217.115483,67.3466733 217.862153,66.024 C218.608824,64.7013267 219.622147,63.6240042 220.902153,62.792 C222.18216,61.9599958 223.664812,61.3626685 225.350153,61 C227.035495,60.6373315 228.795478,60.456 230.630153,60.456 C231.483491,60.456 232.379482,60.5093328 233.318153,60.616 C234.256825,60.7226672 235.259481,60.9039987 236.326153,61.16 L236.326153,59.88 C236.326153,58.9839955 236.219488,58.1306707 236.006153,57.32 C235.792819,56.5093293 235.419489,55.7946698 234.886153,55.176 C234.352817,54.5573302 233.648825,54.077335 232.774153,53.736 C231.899482,53.394665 230.800827,53.224 229.478153,53.224 C227.686145,53.224 226.043494,53.3519987 224.550153,53.608 C223.056813,53.8640013 221.840825,54.162665 220.902153,54.504 L219.942153,48.232 C220.923492,47.890665 222.352811,47.549335 224.230153,47.208 C226.107496,46.866665 228.112809,46.696 230.246153,46.696 Z M260.636307,60.584 C261.617645,59.5599949 262.662968,58.4613392 263.772307,57.288 C264.881646,56.1146608 265.969635,54.9413392 267.036307,53.768 C268.102979,52.5946608 269.116302,51.4640054 270.076307,50.376 C271.036312,49.2879946 271.857637,48.3386707 272.540307,47.528 L281.692307,47.528 C279.558963,49.9173453 277.308319,52.3919872 274.940307,54.952 C272.572295,57.5120128 270.193652,60.0079878 267.804307,62.44 C269.084313,63.506672 270.4283,64.7973258 271.836307,66.312 C273.244314,67.8266742 274.609634,69.4373248 275.932307,71.144 C277.25498,72.8506752 278.492301,74.5573248 279.644307,76.264 C280.796313,77.9706752 281.756303,79.5493261 282.524307,81 L273.564307,81 C272.796303,79.6773267 271.910979,78.2906739 270.908307,76.84 C269.905635,75.3893261 268.828313,73.9813402 267.676307,72.616 C266.524301,71.2506598 265.35098,69.9600061 264.156307,68.744 C262.961634,67.5279939 261.788313,66.4933376 260.636307,65.64 L260.636307,81 L252.892307,81 L252.892307,32.616 L260.636307,31.336 L260.636307,60.584 Z M284.43446,64.424 C284.43446,61.4799853 284.871789,58.8986778 285.74646,56.68 C286.621132,54.4613222 287.783787,52.6160074 289.23446,51.144 C290.685134,49.6719926 292.349118,48.5626704 294.22646,47.816 C296.103803,47.0693296 298.023784,46.696 299.98646,46.696 C304.594484,46.696 308.189114,48.125319 310.77046,50.984 C313.351807,53.842681 314.64246,58.109305 314.64246,63.784 C314.64246,64.2106688 314.631794,64.690664 314.61046,65.224 C314.589127,65.757336 314.557127,66.2373312 314.51446,66.664 L292.43446,66.664 C292.647795,69.3520134 293.597119,71.4319926 295.28246,72.904 C296.967802,74.3760074 299.410444,75.112 302.61046,75.112 C304.487803,75.112 306.205119,74.941335 307.76246,74.6 C309.319802,74.258665 310.546456,73.8960019 311.44246,73.512 L312.46646,79.848 C312.039792,80.0613344 311.453131,80.2853322 310.70646,80.52 C309.95979,80.7546678 309.106465,80.967999 308.14646,81.16 C307.186456,81.352001 306.151799,81.5119994 305.04246,81.64 C303.933122,81.7680006 302.802466,81.832 301.65046,81.832 C298.706446,81.832 296.146471,81.394671 293.97046,80.52 C291.79445,79.645329 290.002468,78.4293411 288.59446,76.872 C287.186453,75.3146589 286.141131,73.4800106 285.45846,71.368 C284.77579,69.2559894 284.43446,66.9413459 284.43446,64.424 Z M306.89846,60.968 C306.89846,59.901328 306.749129,58.8880048 306.45046,57.928 C306.151792,56.9679952 305.714463,56.1360035 305.13846,55.432 C304.562458,54.7279965 303.858465,54.1733354 303.02646,53.768 C302.194456,53.3626646 301.202466,53.16 300.05046,53.16 C298.855788,53.16 297.810465,53.3839978 296.91446,53.832 C296.018456,54.2800022 295.26113,54.866663 294.64246,55.592 C294.023791,56.317337 293.543796,57.1493286 293.20246,58.088 C292.861125,59.0266714 292.626461,59.9866618 292.49846,60.968 L306.89846,60.968 Z M322.824614,36.648 L330.888614,36.648 L330.888614,81 L322.824614,81 L322.824614,36.648 Z M338.878767,64.296 C338.878767,61.821321 339.262764,59.5066774 340.030767,57.352 C340.798771,55.1973226 341.897427,53.3306746 343.326767,51.752 C344.756108,50.1733254 346.494757,48.9360045 348.542767,48.04 C350.590778,47.1439955 352.894755,46.696 355.454767,46.696 C358.612117,46.696 361.598753,47.2719942 364.414767,48.424 L362.750767,54.76 C361.854763,54.3759981 360.84144,54.0560013 359.710767,53.8 C358.580095,53.5439987 357.374774,53.416 356.094767,53.416 C353.065419,53.416 350.761442,54.3653238 349.182767,56.264 C347.604093,58.1626762 346.814767,60.8399827 346.814767,64.296 C346.814767,67.6240166 347.561427,70.258657 349.054767,72.2 C350.548108,74.141343 353.065416,75.112 356.606767,75.112 C357.929441,75.112 359.230761,74.9840013 360.510767,74.728 C361.790774,74.4719987 362.900096,74.1520019 363.838767,73.768 L364.926767,80.168 C364.07343,80.5946688 362.782776,80.978665 361.054767,81.32 C359.326759,81.661335 357.545443,81.832 355.710767,81.832 C352.852086,81.832 350.366778,81.394671 348.254767,80.52 C346.142757,79.645329 344.393441,78.4293411 343.006767,76.872 C341.620094,75.3146589 340.585438,73.4586774 339.902767,71.304 C339.220097,69.1493226 338.878767,66.8133459 338.878767,64.296 Z M400.116921,64.232 C400.116921,66.8773466 399.732925,69.2879891 398.964921,71.464 C398.196917,73.6400109 397.108928,75.4959923 395.700921,77.032 C394.292914,78.5680077 392.596931,79.7626624 390.612921,80.616 C388.628911,81.4693376 386.442266,81.896 384.052921,81.896 C381.663576,81.896 379.487597,81.4693376 377.524921,80.616 C375.562244,79.7626624 373.876928,78.5680077 372.468921,77.032 C371.060914,75.4959923 369.962258,73.6400109 369.172921,71.464 C368.383584,69.2879891 367.988921,66.8773466 367.988921,64.232 C367.988921,61.5866534 368.383584,59.1866774 369.172921,57.032 C369.962258,54.8773226 371.07158,53.0320077 372.500921,51.496 C373.930261,49.9599923 375.626244,48.7760042 377.588921,47.944 C379.551597,47.1119958 381.706243,46.696 384.052921,46.696 C386.399599,46.696 388.564911,47.1119958 390.548921,47.944 C392.532931,48.7760042 394.228914,49.9599923 395.636921,51.496 C397.044928,53.0320077 398.143584,54.8773226 398.932921,57.032 C399.722258,59.1866774 400.116921,61.5866534 400.116921,64.232 Z M392.180921,64.232 C392.180921,60.9039834 391.466261,58.269343 390.036921,56.328 C388.60758,54.386657 386.612934,53.416 384.052921,53.416 C381.492908,53.416 379.498261,54.386657 378.068921,56.328 C376.63958,58.269343 375.924921,60.9039834 375.924921,64.232 C375.924921,67.6026835 376.63958,70.2693235 378.068921,72.232 C379.498261,74.1946765 381.492908,75.176 384.052921,75.176 C386.612934,75.176 388.60758,74.1946765 390.036921,72.232 C391.466261,70.2693235 392.180921,67.6026835 392.180921,64.232 Z M407.723074,48.616 C409.216415,48.1893312 411.157729,47.7840019 413.547074,47.4 C415.93642,47.0159981 418.581727,46.824 421.483074,46.824 C424.213755,46.824 426.496399,47.1973296 428.331074,47.944 C430.16575,48.6906704 431.627069,49.7359933 432.715074,51.08 C433.80308,52.4240067 434.571072,54.0453238 435.019074,55.944 C435.467077,57.8426762 435.691074,59.9226554 435.691074,62.184 L435.691074,81 L427.947074,81 L427.947074,63.4 C427.947074,61.607991 427.829742,60.082673 427.595074,58.824 C427.360407,57.565327 426.97641,56.5413373 426.443074,55.752 C425.909738,54.9626627 425.184412,54.3866685 424.267074,54.024 C423.349736,53.6613315 422.229748,53.48 420.907074,53.48 C419.925736,53.48 418.901746,53.5439994 417.835074,53.672 C416.768402,53.8000006 415.979077,53.9066662 415.467074,53.992 L415.467074,81 L407.723074,81 L407.723074,48.616 Z" id="MakeIcon" fill="#424242"></path>
            <path d="M163.743385,102.196 C164.233385,99.564 165.241385,93.558 165.213385,92.494 L164.051385,92.494 L164.135385,91.948 L166.823385,91.948 C166.823385,92.872 166.333385,95.966 166.249385,96.526 C166.207385,96.764 166.179385,96.96 166.123385,97.17 L166.179385,97.17 C166.655385,96.4 167.271385,95.476 168.447385,95.476 C169.693385,95.476 170.309385,96.484 170.309385,97.912 C170.309385,100.04 168.951385,102.196 166.837385,102.196 C165.857385,102.196 165.437385,101.762 165.241385,101.216 C164.947385,101.412 164.597385,101.734 164.387385,102.196 L163.743385,102.196 Z M165.703385,100.418 C165.703385,101.118 166.011385,101.538 166.613385,101.538 C167.873385,101.538 168.713385,99.452 168.713385,97.422 C168.713385,96.568 168.503385,96.204 168.055385,96.204 C167.677385,96.204 167.313385,96.526 166.935385,97.002 C166.291385,97.884 165.703385,99.41 165.703385,100.418 Z M170.727231,97.8 L171.287231,97.912 C171.539231,96.89 171.847231,96.456 172.057231,96.456 C172.253231,96.456 172.351231,96.638 172.603231,97.45 C172.953231,98.612 173.597231,100.992 173.597231,102.532 C173.597231,103.386 173.219231,104.786 172.197231,104.786 C171.413231,104.786 171.693231,103.54 171.833231,103.134 C170.741231,103.064 170.363231,103.624 170.363231,104.114 C170.363231,104.996 171.273231,105.304 172.099231,105.304 C173.779231,105.304 174.885231,103.708 174.927231,101.594 C175.725231,100.88 176.411231,100.054 176.915231,98.99 C177.195231,98.416 177.447231,97.618 177.447231,96.904 C177.447231,96.19 177.195231,95.476 176.313231,95.476 C175.543231,95.476 175.291231,95.98 175.291231,96.61 C176.131231,96.442 176.649231,96.876 176.649231,97.688 C176.649231,98.304 176.299231,99.032 175.907231,99.648 C175.599231,100.124 175.235231,100.558 174.899231,100.894 C174.787231,99.312 174.241231,97.618 174.003231,96.89 C173.639231,95.854 173.247231,95.546 172.589231,95.546 C171.567231,95.546 171.021231,96.54 170.727231,97.8 Z M180.788924,102 L187.872924,102 L187.956924,101.23 C188.040924,100.432 188.348924,99.004 188.348924,99.004 L187.844924,99.004 C187.060924,101.216 186.794924,101.412 186.150924,101.412 L183.812924,101.412 L184.960924,93.292 L186.234924,93.292 L186.304924,92.746 L182.090924,92.746 L182.020924,93.292 L183.308924,93.292 L182.160924,101.454 L180.872924,101.454 L180.788924,102 Z M189.10277,99.508 C189.10277,97.632 190.01277,95.476 192.65877,95.476 C193.49877,95.476 194.52077,95.714 194.52077,96.792 C194.52077,98.15 193.02277,98.528 191.93077,98.878 C191.21677,99.116 190.86677,99.34 190.67077,99.522 C190.65677,99.704 190.65677,99.872 190.65677,100.012 C190.65677,101.202 191.03477,101.622 191.77677,101.622 C192.64477,101.622 193.30277,100.936 193.68077,100.11 L194.25477,100.292 C193.72277,101.384 193.00877,102.196 191.53877,102.196 C189.88677,102.196 189.10277,101.244 189.10277,99.508 Z M192.47677,95.966 C191.46877,95.966 190.95077,97.492 190.75477,98.822 C190.97877,98.654 191.27277,98.5 191.79077,98.318 C192.49077,98.08 193.09277,97.716 193.09277,96.652 C193.09277,96.218 192.88277,95.966 192.47677,95.966 Z M195.246616,99.466 C195.246616,97.324 196.282616,95.476 198.802616,95.476 C200.678616,95.476 201.420616,96.624 201.420616,98.178 C201.420616,100.362 200.314616,102.196 197.850616,102.196 C195.918616,102.196 195.246616,100.978 195.246616,99.466 Z M196.814616,100.026 C196.814616,101.118 197.136616,101.706 197.864616,101.706 C199.236616,101.706 199.838616,99.592 199.838616,97.646 C199.838616,96.61 199.530616,95.966 198.774616,95.966 C197.290616,95.966 196.814616,98.318 196.814616,100.026 Z M202.524462,102 L204.064462,102 C204.190462,100.922 204.554462,99.676 205.002462,98.626 C205.576462,97.296 206.304462,96.26 206.920462,96.26 C207.228462,96.26 207.312462,96.484 207.312462,96.946 C207.312462,98.136 206.640462,99.97 206.640462,100.922 C206.640462,101.79 207.200462,102.126 207.886462,102.126 C209.034462,102.126 209.538462,101.244 210.014462,99.9 L209.454462,99.76 C209.104462,100.768 208.698462,101.398 208.348462,101.398 C208.222462,101.398 208.138462,101.314 208.138462,101.02 C208.138462,100.11 208.838462,98.29 208.838462,97.044 C208.838462,96.022 208.348462,95.476 207.438462,95.476 C205.828462,95.476 204.960462,97.282 204.540462,98.346 L204.512462,98.346 C204.722462,97.282 204.932462,96.47 204.932462,95.672 L202.342462,95.672 L202.258462,96.218 L203.336462,96.218 C203.336462,97.03 203.084462,98.43 202.524462,102 Z M212.182308,102.196 C211.006308,102.196 210.362308,101.244 210.362308,99.76 C210.362308,97.632 211.692308,95.476 213.750308,95.476 C214.632308,95.476 215.066308,95.882 215.262308,96.414 C215.500308,96.232 215.822308,95.91 216.046308,95.476 L216.676308,95.476 C216.326308,97.17 215.808308,100.152 215.808308,101.02 C215.808308,101.3 215.878308,101.398 216.032308,101.398 C216.438308,101.398 216.872308,100.516 217.124308,99.76 L217.684308,99.9 C217.292308,100.964 216.844308,102.126 215.556308,102.126 C214.772308,102.126 214.408308,101.734 214.408308,100.95 C214.408308,100.796 214.422308,100.586 214.464308,100.362 L214.408308,100.362 C214.002308,101.188 213.344308,102.196 212.182308,102.196 Z M211.944308,100.32 C211.944308,101.16 212.140308,101.496 212.504308,101.496 C213.008308,101.496 213.484308,100.922 213.876308,100.194 C214.352308,99.326 214.800308,98.052 214.800308,97.254 C214.800308,96.68 214.562308,96.092 213.918308,96.092 C212.700308,96.092 211.944308,98.388 211.944308,100.32 Z M218.284154,102 L219.824154,102 C219.866154,101.258 220.468154,99.102 221.154154,97.674 C221.518154,96.918 221.938154,96.316 222.302154,96.316 C222.484154,96.316 222.554154,96.428 222.554154,96.722 C222.554154,97.17 222.358154,97.702 222.344154,97.814 C223.436154,97.842 223.912154,97.212 223.912154,96.526 C223.912154,95.784 223.324154,95.476 222.764154,95.476 C221.588154,95.476 220.930154,96.624 220.342154,98.164 L220.314154,98.164 C220.538154,97.114 220.692154,96.372 220.692154,95.672 L218.102154,95.672 L218.018154,96.218 L219.096154,96.218 C219.096154,96.946 218.844154,98.458 218.284154,102 Z M225.786,102.196 C224.61,102.196 223.98,101.3 223.98,99.816 C223.98,97.688 225.352,95.476 227.452,95.476 C228.152,95.476 228.544,95.77 228.74,96.064 C228.95,94.636 229.202,93.096 229.202,92.494 L228.026,92.494 L228.096,91.948 L230.812,91.948 C230.812,93.684 229.538,99.956 229.538,101.02 C229.538,101.3 229.608,101.398 229.762,101.398 C230.168,101.398 230.588,100.516 230.854,99.76 L231.414,99.9 C231.022,100.964 230.574,102.126 229.272,102.126 C228.53,102.126 228.068,101.748 228.068,100.964 C228.068,100.81 228.082,100.614 228.11,100.418 L228.068,100.418 C227.634,101.216 226.92,102.196 225.786,102.196 Z M225.576,100.278 C225.576,101.118 225.758,101.468 226.178,101.468 C227.158,101.468 228.474,98.738 228.474,97.226 C228.474,96.582 228.208,96.134 227.592,96.134 C226.234,96.134 225.576,98.668 225.576,100.278 Z M231.817846,99.466 C231.817846,97.324 232.853846,95.476 235.373846,95.476 C237.249846,95.476 237.991846,96.624 237.991846,98.178 C237.991846,100.362 236.885846,102.196 234.421846,102.196 C232.489846,102.196 231.817846,100.978 231.817846,99.466 Z M233.385846,100.026 C233.385846,101.118 233.707846,101.706 234.435846,101.706 C235.807846,101.706 236.409846,99.592 236.409846,97.646 C236.409846,96.61 236.101846,95.966 235.345846,95.966 C233.861846,95.966 233.385846,98.318 233.385846,100.026 Z M241.557538,102 L245.897538,102 L245.981538,101.454 L244.567538,101.454 L245.701538,93.334 L246.401538,93.334 C247.843538,93.334 248.137538,94.174 248.137538,95 C248.137538,96.54 247.493538,97.786 246.289538,97.786 C246.093538,97.786 245.883538,97.758 245.883538,97.758 L245.799538,98.318 C245.799538,98.318 246.037538,98.36 246.387538,98.36 C248.879538,98.36 249.887538,96.792 249.887538,95.196 C249.887538,93.838 249.075538,92.746 246.513538,92.746 L242.859538,92.746 L242.789538,93.292 L244.063538,93.292 L242.915538,101.454 L241.641538,101.454 L241.557538,102 Z M250.081384,99.508 C250.081384,97.632 250.991384,95.476 253.637384,95.476 C254.477384,95.476 255.499384,95.714 255.499384,96.792 C255.499384,98.15 254.001384,98.528 252.909384,98.878 C252.195384,99.116 251.845384,99.34 251.649384,99.522 C251.635384,99.704 251.635384,99.872 251.635384,100.012 C251.635384,101.202 252.013384,101.622 252.755384,101.622 C253.623384,101.622 254.281384,100.936 254.659384,100.11 L255.233384,100.292 C254.701384,101.384 253.987384,102.196 252.517384,102.196 C250.865384,102.196 250.081384,101.244 250.081384,99.508 Z M253.455384,95.966 C252.447384,95.966 251.929384,97.492 251.733384,98.822 C251.957384,98.654 252.251384,98.5 252.769384,98.318 C253.469384,98.08 254.071384,97.716 254.071384,96.652 C254.071384,96.218 253.861384,95.966 253.455384,95.966 Z M255.97323,100.88 C255.97323,101.692 256.95323,102.196 258.29723,102.196 C260.17323,102.196 261.06923,101.286 261.06923,100.152 C261.06923,97.94 257.84923,98.332 257.84923,96.876 C257.84923,96.302 258.36723,95.98 259.12323,95.98 C259.83723,95.98 260.17323,96.344 260.17323,96.89 C260.17323,97.282 260.04723,97.632 260.04723,97.632 C260.92923,97.66 261.40523,97.268 261.40523,96.708 C261.40523,95.98 260.46723,95.476 259.16523,95.476 C257.59723,95.476 256.53323,96.218 256.53323,97.436 C256.53323,99.522 259.72523,99.144 259.72523,100.698 C259.72523,101.356 259.10923,101.692 258.45123,101.692 C257.40123,101.692 257.05123,100.866 257.17723,99.97 C256.43523,99.97 255.97323,100.32 255.97323,100.88 Z M261.963076,100.88 C261.963076,101.692 262.943076,102.196 264.287076,102.196 C266.163076,102.196 267.059076,101.286 267.059076,100.152 C267.059076,97.94 263.839076,98.332 263.839076,96.876 C263.839076,96.302 264.357076,95.98 265.113076,95.98 C265.827076,95.98 266.163076,96.344 266.163076,96.89 C266.163076,97.282 266.037076,97.632 266.037076,97.632 C266.919076,97.66 267.395076,97.268 267.395076,96.708 C267.395076,95.98 266.457076,95.476 265.155076,95.476 C263.587076,95.476 262.523076,96.218 262.523076,97.436 C262.523076,99.522 265.715076,99.144 265.715076,100.698 C265.715076,101.356 265.099076,101.692 264.441076,101.692 C263.391076,101.692 263.041076,100.866 263.167076,99.97 C262.425076,99.97 261.963076,100.32 261.963076,100.88 Z M268.204923,99.466 C268.204923,97.324 269.240923,95.476 271.760923,95.476 C273.636923,95.476 274.378923,96.624 274.378923,98.178 C274.378923,100.362 273.272923,102.196 270.808923,102.196 C268.876923,102.196 268.204923,100.978 268.204923,99.466 Z M269.772923,100.026 C269.772923,101.118 270.094923,101.706 270.822923,101.706 C272.194923,101.706 272.796923,99.592 272.796923,97.646 C272.796923,96.61 272.488923,95.966 271.732923,95.966 C270.248923,95.966 269.772923,98.318 269.772923,100.026 Z M277.064769,102.196 C275.888769,102.196 275.244769,101.244 275.244769,99.76 C275.244769,97.632 276.574769,95.476 278.632769,95.476 C279.514769,95.476 279.948769,95.882 280.144769,96.414 C280.382769,96.232 280.704769,95.91 280.928769,95.476 L281.558769,95.476 C281.208769,97.17 280.690769,100.152 280.690769,101.02 C280.690769,101.3 280.760769,101.398 280.914769,101.398 C281.320769,101.398 281.754769,100.516 282.006769,99.76 L282.566769,99.9 C282.174769,100.964 281.726769,102.126 280.438769,102.126 C279.654769,102.126 279.290769,101.734 279.290769,100.95 C279.290769,100.796 279.304769,100.586 279.346769,100.362 L279.290769,100.362 C278.884769,101.188 278.226769,102.196 277.064769,102.196 Z M276.826769,100.32 C276.826769,101.16 277.022769,101.496 277.386769,101.496 C277.890769,101.496 278.366769,100.922 278.758769,100.194 C279.234769,99.326 279.682769,98.052 279.682769,97.254 C279.682769,96.68 279.444769,96.092 278.800769,96.092 C277.582769,96.092 276.826769,98.388 276.826769,100.32 Z" id="by-Leonardo-Pessoa" fill="#BBBBBB"></path>
            <g id="Group" transform="translate(1.000000, 1.000000)">
                <rect id="Rectangle-3" fill="#F5F5F5" x="1" y="0" width="128" height="112"></rect>
                <path d="M70,8 L10,8 L10,104 L122,104 L122,60 L115,60 L115,97 L18,97 L18,32 L70,32 L70,8 Z" id="Combined-Shape" fill="#424242"></path>
                <rect id="Rectangle-4" fill="#FCA000" x="79" y="8" width="43" height="42"></rect>
                <polygon id="L" fill="#F5F5F5" points="91 15 96.3790984 15 96.3790984 36.9208315 110 36.9208315 110 42 91 42"></polygon>
                <path d="M9.68817905,92.8786886 C6.74446741,97.87017 0.0618252594,101.358356 0.0618252594,107.189777 C0.0618252594,112.120742 0.102919906,116.090105 0.0195955126,116.61846 C-0.164230163,117.780965 0.978161096,124.446251 2.06834948,124.896732 C2.37515113,125.023257 9.17173124,127.999575 17.7009022,128 C23.6475777,128 32.271962,126.562366 36.3833594,123.727434 C41.2555909,120.368143 56.1075306,97.8309069 60,92.0257202 L41.5720215,72 C30.2222528,80.5627139 13.2960037,86.7611091 9.68817905,92.8786886 Z" id="Combined-Shape" fill="#F5F5F5"></path>
                <path d="M14.5752323,107.404043 C15.4489874,103.130863 16.6403075,97.3539093 25.0494589,96 L35,105.977254 C33.9172866,110.209889 31.8808464,113.387316 28.9270536,115.417667 C26.4345168,117.131096 23.3434823,118 19.7401131,118 L19.7383073,118 C14.5674931,117.999743 10.1417054,116.200861 9.95570672,116.124389 C9.29477946,115.852119 8.90756173,115.1649 9.01900614,114.462283 C9.13019258,113.75941 9.71089018,113.224108 10.423928,113.167139 C13.3176131,112.936184 13.8126636,111.133196 14.5752323,107.404043 Z M68.4044556,62.6053794 C69.7739848,64.009659 68.6779462,66.2949464 66.1755324,70.0209471 C64.286267,72.8339944 61.4737759,76.5343859 57.8161623,81.018893 C52.0240758,88.1216065 44.7410239,96.3973251 38.4977037,103 L29,93.2595431 C35.0702478,87.226606 42.7017798,80.137093 49.3208253,74.4064496 C63.6502844,62 66.0097254,62 66.8979215,62 C67.6553402,62 68.135376,62.3292229 68.4044556,62.6053794 Z" id="Combined-Shape" fill="#424242"></path>
            </g>
        </g>
    </g>
</svg>