<?xml version="1.0" encoding="UTF-8" standalone="no"?>
<!DOCTYPE svg PUBLIC "-//W3C//DTD SVG 1.1//EN" "http://www.w3.org/Graphics/SVG/1.1/DTD/svg11.dtd">
<svg width="100%" height="100%" viewBox="0 0 440 130" version="1.1" xmlns="http://www.w3.org/2000/svg" xmlns:xlink="http://www.w3.org/1999/xlink" xml:space="preserve" xmlns:serif="http://www.serif.com/" style="fill-rule:evenodd;clip-rule:evenodd;stroke-linecap:round;stroke-linejoin:round;stroke-miterlimit:1.5;">
    <g id="Header" transform="matrix(1.23775,0,0,1.06614,-324.111,-214.603)">
        <rect x="261.855" y="201.29" width="355.484" height="121.935" style="fill:none;"/>
        <g transform="matrix(0.807918,0,0,0.937965,276.449,191.605)">
            <g transform="matrix(12,0,0,12,136.96,105.582)">
                <path d="M0.047,-0.664L0.074,-0.688L0.216,-0.688L0.176,-0.365C0.191,-0.39 0.209,-0.412 0.232,-0.431C0.255,-0.449 0.284,-0.458 0.319,-0.458C0.372,-0.458 0.411,-0.44 0.438,-0.403C0.465,-0.366 0.478,-0.321 0.478,-0.268C0.478,-0.227 0.471,-0.185 0.456,-0.141C0.441,-0.099 0.418,-0.063 0.387,-0.034C0.356,-0.005 0.315,0.01 0.264,0.01C0.198,0.01 0.155,-0.017 0.135,-0.07C0.132,-0.059 0.13,-0.047 0.127,-0.035C0.124,-0.023 0.12,-0.011 0.117,-0L0.014,-0C0.021,-0.022 0.027,-0.045 0.033,-0.068C0.039,-0.091 0.043,-0.113 0.046,-0.135L0.103,-0.606L0.04,-0.606L0.047,-0.664ZM0.252,-0.072C0.291,-0.072 0.32,-0.093 0.339,-0.134C0.358,-0.174 0.367,-0.215 0.367,-0.254C0.367,-0.289 0.36,-0.318 0.347,-0.341C0.334,-0.364 0.313,-0.375 0.284,-0.375C0.248,-0.375 0.22,-0.36 0.199,-0.33C0.178,-0.299 0.166,-0.268 0.161,-0.235L0.16,-0.229L0.154,-0.183C0.153,-0.15 0.162,-0.124 0.18,-0.103C0.197,-0.082 0.221,-0.072 0.252,-0.072Z" style="fill:#a6a6a6;fill-rule:nonzero;"/>
            </g>
            <g transform="matrix(12,0,0,12,142.792,105.582)">
                <path d="M0.245,-0.123L0.251,-0.123C0.286,-0.168 0.312,-0.208 0.329,-0.244C0.346,-0.28 0.354,-0.317 0.354,-0.356C0.354,-0.37 0.353,-0.385 0.35,-0.401C0.347,-0.416 0.342,-0.432 0.335,-0.449L0.452,-0.449C0.46,-0.41 0.46,-0.368 0.453,-0.325C0.445,-0.281 0.424,-0.235 0.39,-0.188C0.377,-0.169 0.359,-0.146 0.336,-0.119C0.313,-0.092 0.29,-0.065 0.266,-0.04L0.241,0.131L0.31,0.131L0.302,0.189L0.275,0.213L0.055,0.213L0.063,0.155L0.09,0.131L0.138,0.131L0.164,-0.043L0.06,-0.366L0.009,-0.366L0.017,-0.425L0.044,-0.449L0.245,-0.449L0.238,-0.39L0.21,-0.366L0.17,-0.366L0.245,-0.123Z" style="fill:#a6a6a6;fill-rule:nonzero;"/>
            </g>
            <g transform="matrix(12,0,0,12,150.676,105.582)">
                <path d="M0.477,-0L0.009,-0L0.019,-0.095L0.092,-0.095L0.14,-0.555L0.067,-0.555L0.077,-0.65L0.354,-0.65L0.344,-0.555L0.247,-0.555L0.199,-0.095L0.396,-0.095L0.429,-0.23L0.519,-0.222L0.477,-0Z" style="fill:#a6a6a6;fill-rule:nonzero;"/>
            </g>
            <g transform="matrix(12,0,0,12,156.976,105.582)">
                <path d="M0.222,-0.072C0.255,-0.072 0.278,-0.081 0.292,-0.099C0.305,-0.117 0.315,-0.135 0.321,-0.152L0.404,-0.135C0.397,-0.096 0.376,-0.063 0.342,-0.034C0.308,-0.005 0.263,0.01 0.206,0.01C0.152,0.01 0.108,-0.006 0.073,-0.039C0.038,-0.071 0.02,-0.121 0.02,-0.189C0.02,-0.262 0.041,-0.326 0.084,-0.379C0.126,-0.432 0.184,-0.458 0.257,-0.458C0.302,-0.458 0.339,-0.447 0.369,-0.426C0.398,-0.404 0.413,-0.375 0.413,-0.339C0.413,-0.306 0.401,-0.277 0.378,-0.254C0.354,-0.231 0.312,-0.213 0.253,-0.2C0.236,-0.196 0.217,-0.193 0.197,-0.19C0.176,-0.187 0.155,-0.184 0.132,-0.181C0.133,-0.146 0.141,-0.119 0.154,-0.101C0.167,-0.082 0.19,-0.072 0.222,-0.072ZM0.202,-0.256C0.246,-0.265 0.274,-0.277 0.286,-0.29C0.299,-0.303 0.305,-0.317 0.305,-0.332C0.305,-0.351 0.299,-0.364 0.288,-0.372C0.276,-0.379 0.261,-0.383 0.244,-0.383C0.209,-0.383 0.184,-0.369 0.167,-0.341C0.15,-0.312 0.14,-0.28 0.135,-0.245C0.148,-0.246 0.16,-0.248 0.171,-0.251C0.182,-0.253 0.193,-0.255 0.202,-0.256Z" style="fill:#a6a6a6;fill-rule:nonzero;"/>
            </g>
            <g transform="matrix(12,0,0,12,162.184,105.582)">
                <path d="M0.021,-0.192C0.021,-0.261 0.041,-0.323 0.08,-0.377C0.118,-0.431 0.178,-0.458 0.259,-0.458C0.326,-0.458 0.375,-0.438 0.405,-0.399C0.435,-0.36 0.45,-0.31 0.45,-0.251C0.45,-0.175 0.428,-0.113 0.385,-0.064C0.341,-0.015 0.282,0.01 0.209,0.01C0.148,0.01 0.102,-0.008 0.07,-0.044C0.037,-0.08 0.021,-0.129 0.021,-0.192ZM0.132,-0.2C0.132,-0.161 0.138,-0.13 0.15,-0.107C0.162,-0.084 0.185,-0.072 0.219,-0.072C0.262,-0.072 0.293,-0.09 0.312,-0.125C0.331,-0.16 0.34,-0.201 0.34,-0.248C0.34,-0.333 0.309,-0.375 0.248,-0.375C0.171,-0.375 0.132,-0.317 0.132,-0.2Z" style="fill:#a6a6a6;fill-rule:nonzero;"/>
            </g>
            <g transform="matrix(12,0,0,12,167.884,105.582)">
                <path d="M0.059,-0.449L0.188,-0.449L0.191,-0.362C0.206,-0.391 0.226,-0.415 0.25,-0.432C0.274,-0.449 0.303,-0.458 0.338,-0.458C0.379,-0.458 0.413,-0.445 0.439,-0.419C0.465,-0.393 0.475,-0.352 0.468,-0.297L0.442,-0.082L0.507,-0.082L0.499,-0.022L0.472,-0L0.33,-0L0.362,-0.258C0.367,-0.301 0.364,-0.331 0.351,-0.348C0.338,-0.366 0.318,-0.375 0.291,-0.375C0.258,-0.375 0.233,-0.364 0.215,-0.341C0.197,-0.318 0.186,-0.29 0.182,-0.257L0.182,-0.258L0.15,-0L0.048,-0L0.093,-0.366L0.024,-0.366L0.031,-0.425L0.059,-0.449Z" style="fill:#a6a6a6;fill-rule:nonzero;"/>
            </g>
            <g transform="matrix(12,0,0,12,174.208,105.582)">
                <path d="M0.478,-0.449C0.471,-0.424 0.464,-0.398 0.458,-0.373C0.451,-0.348 0.447,-0.322 0.444,-0.297L0.417,-0.082L0.478,-0.082L0.471,-0.022L0.445,-0L0.321,-0L0.319,-0.091C0.305,-0.064 0.286,-0.04 0.262,-0.02C0.238,-0 0.207,0.01 0.17,0.01C0.121,0.01 0.084,-0.008 0.059,-0.044C0.034,-0.08 0.021,-0.126 0.021,-0.181C0.021,-0.22 0.028,-0.262 0.042,-0.305C0.056,-0.347 0.078,-0.384 0.109,-0.413C0.139,-0.443 0.179,-0.458 0.229,-0.458C0.296,-0.458 0.339,-0.43 0.358,-0.374C0.361,-0.387 0.364,-0.399 0.367,-0.411C0.37,-0.424 0.374,-0.436 0.379,-0.449L0.478,-0.449ZM0.244,-0.375C0.203,-0.375 0.174,-0.356 0.157,-0.317C0.14,-0.278 0.132,-0.237 0.132,-0.194C0.132,-0.113 0.158,-0.072 0.209,-0.072C0.24,-0.072 0.266,-0.086 0.287,-0.114C0.308,-0.141 0.322,-0.17 0.329,-0.2L0.337,-0.261C0.338,-0.296 0.33,-0.324 0.312,-0.344C0.293,-0.365 0.271,-0.375 0.244,-0.375Z" style="fill:#a6a6a6;fill-rule:nonzero;"/>
            </g>
            <g transform="matrix(12,0,0,12,180.304,105.582)">
                <path d="M0.069,-0.449L0.191,-0.449L0.195,-0.334C0.206,-0.365 0.22,-0.393 0.239,-0.419C0.258,-0.445 0.28,-0.458 0.307,-0.458C0.326,-0.458 0.343,-0.452 0.358,-0.44L0.341,-0.331C0.324,-0.341 0.306,-0.346 0.289,-0.346C0.266,-0.346 0.247,-0.338 0.23,-0.322C0.213,-0.306 0.202,-0.285 0.195,-0.258L0.171,-0.082L0.26,-0.082L0.252,-0.024L0.225,-0L-0.005,-0L0.003,-0.058L0.03,-0.082L0.068,-0.082L0.102,-0.366L0.035,-0.366L0.042,-0.425L0.069,-0.449Z" style="fill:#a6a6a6;fill-rule:nonzero;"/>
            </g>
            <g transform="matrix(12,0,0,12,184.444,105.582)">
                <path d="M0.3,-0.664L0.327,-0.688L0.496,-0.688L0.422,-0.082L0.486,-0.082L0.479,-0.022L0.452,-0L0.325,-0L0.325,-0.097C0.31,-0.068 0.289,-0.043 0.263,-0.022C0.237,-0.001 0.205,0.01 0.166,0.01C0.117,0.01 0.08,-0.008 0.056,-0.044C0.032,-0.08 0.02,-0.125 0.02,-0.178C0.02,-0.219 0.027,-0.262 0.042,-0.305C0.057,-0.347 0.08,-0.384 0.111,-0.413C0.142,-0.443 0.183,-0.458 0.232,-0.458C0.292,-0.458 0.333,-0.435 0.356,-0.389L0.383,-0.606L0.293,-0.606L0.3,-0.664ZM0.248,-0.375C0.207,-0.375 0.177,-0.356 0.159,-0.317C0.14,-0.278 0.131,-0.236 0.131,-0.191C0.131,-0.154 0.137,-0.125 0.149,-0.104C0.161,-0.083 0.18,-0.072 0.206,-0.072C0.237,-0.072 0.265,-0.086 0.289,-0.115C0.312,-0.143 0.327,-0.172 0.333,-0.203L0.341,-0.268C0.342,-0.301 0.333,-0.328 0.314,-0.346C0.295,-0.366 0.273,-0.375 0.248,-0.375Z" style="fill:#a6a6a6;fill-rule:nonzero;"/>
            </g>
            <g transform="matrix(12,0,0,12,190.576,105.582)">
                <path d="M0.021,-0.192C0.021,-0.261 0.041,-0.323 0.08,-0.377C0.118,-0.431 0.178,-0.458 0.259,-0.458C0.326,-0.458 0.375,-0.438 0.405,-0.399C0.435,-0.36 0.45,-0.31 0.45,-0.251C0.45,-0.175 0.428,-0.113 0.385,-0.064C0.341,-0.015 0.282,0.01 0.209,0.01C0.148,0.01 0.102,-0.008 0.07,-0.044C0.037,-0.08 0.021,-0.129 0.021,-0.192ZM0.132,-0.2C0.132,-0.161 0.138,-0.13 0.15,-0.107C0.162,-0.084 0.185,-0.072 0.219,-0.072C0.262,-0.072 0.293,-0.09 0.312,-0.125C0.331,-0.16 0.34,-0.201 0.34,-0.248C0.34,-0.333 0.309,-0.375 0.248,-0.375C0.171,-0.375 0.132,-0.317 0.132,-0.2Z" style="fill:#a6a6a6;fill-rule:nonzero;"/>
            </g>
            <g transform="matrix(12,0,0,12,198.532,105.582)">
                <path d="M0.02,-0.095L0.092,-0.095L0.14,-0.555L0.068,-0.555L0.078,-0.65L0.355,-0.65C0.426,-0.65 0.48,-0.632 0.515,-0.597C0.55,-0.561 0.568,-0.515 0.568,-0.459C0.568,-0.382 0.543,-0.325 0.494,-0.285C0.445,-0.247 0.386,-0.227 0.319,-0.227L0.213,-0.227L0.199,-0.095L0.3,-0.095L0.29,-0L0.01,-0L0.02,-0.095ZM0.31,-0.321C0.361,-0.321 0.397,-0.334 0.42,-0.359C0.442,-0.384 0.453,-0.415 0.453,-0.454C0.453,-0.486 0.444,-0.511 0.426,-0.529C0.407,-0.546 0.376,-0.555 0.333,-0.555L0.247,-0.555L0.223,-0.321L0.31,-0.321Z" style="fill:#a6a6a6;fill-rule:nonzero;"/>
            </g>
            <g transform="matrix(12,0,0,12,205.144,105.582)">
                <path d="M0.222,-0.072C0.255,-0.072 0.278,-0.081 0.292,-0.099C0.305,-0.117 0.315,-0.135 0.321,-0.152L0.404,-0.135C0.397,-0.096 0.376,-0.063 0.342,-0.034C0.308,-0.005 0.263,0.01 0.206,0.01C0.152,0.01 0.108,-0.006 0.073,-0.039C0.038,-0.071 0.02,-0.121 0.02,-0.189C0.02,-0.262 0.041,-0.326 0.084,-0.379C0.126,-0.432 0.184,-0.458 0.257,-0.458C0.302,-0.458 0.339,-0.447 0.369,-0.426C0.398,-0.404 0.413,-0.375 0.413,-0.339C0.413,-0.306 0.401,-0.277 0.378,-0.254C0.354,-0.231 0.312,-0.213 0.253,-0.2C0.236,-0.196 0.217,-0.193 0.197,-0.19C0.176,-0.187 0.155,-0.184 0.132,-0.181C0.133,-0.146 0.141,-0.119 0.154,-0.101C0.167,-0.082 0.19,-0.072 0.222,-0.072ZM0.202,-0.256C0.246,-0.265 0.274,-0.277 0.286,-0.29C0.299,-0.303 0.305,-0.317 0.305,-0.332C0.305,-0.351 0.299,-0.364 0.288,-0.372C0.276,-0.379 0.261,-0.383 0.244,-0.383C0.209,-0.383 0.184,-0.369 0.167,-0.341C0.15,-0.312 0.14,-0.28 0.135,-0.245C0.148,-0.246 0.16,-0.248 0.171,-0.251C0.182,-0.253 0.193,-0.255 0.202,-0.256Z" style="fill:#a6a6a6;fill-rule:nonzero;"/>
            </g>
            <g transform="matrix(12,0,0,12,210.352,105.582)">
                <path d="M0.192,-0.072C0.249,-0.072 0.277,-0.091 0.277,-0.128C0.277,-0.151 0.266,-0.166 0.243,-0.173C0.22,-0.18 0.193,-0.188 0.162,-0.197C0.133,-0.205 0.106,-0.217 0.082,-0.234C0.057,-0.25 0.045,-0.278 0.045,-0.317C0.045,-0.367 0.064,-0.403 0.102,-0.425C0.139,-0.447 0.181,-0.458 0.226,-0.458C0.253,-0.458 0.281,-0.455 0.312,-0.448C0.343,-0.441 0.369,-0.431 0.392,-0.417L0.391,-0.306L0.308,-0.296L0.306,-0.358C0.279,-0.369 0.253,-0.375 0.229,-0.375C0.209,-0.375 0.191,-0.371 0.175,-0.363C0.16,-0.354 0.152,-0.341 0.152,-0.324C0.152,-0.308 0.16,-0.297 0.177,-0.29C0.193,-0.282 0.216,-0.275 0.247,-0.268C0.277,-0.26 0.308,-0.248 0.339,-0.231C0.37,-0.214 0.385,-0.183 0.385,-0.136C0.385,-0.087 0.367,-0.051 0.331,-0.027C0.295,-0.002 0.251,0.01 0.199,0.01C0.17,0.01 0.137,0.006 0.1,-0.001C0.063,-0.008 0.032,-0.019 0.008,-0.034L0.036,-0.15L0.118,-0.142L0.111,-0.086C0.123,-0.081 0.137,-0.077 0.153,-0.075C0.168,-0.073 0.181,-0.072 0.192,-0.072Z" style="fill:#a6a6a6;fill-rule:nonzero;"/>
            </g>
            <g transform="matrix(12,0,0,12,215.452,105.582)">
                <path d="M0.192,-0.072C0.249,-0.072 0.277,-0.091 0.277,-0.128C0.277,-0.151 0.266,-0.166 0.243,-0.173C0.22,-0.18 0.193,-0.188 0.162,-0.197C0.133,-0.205 0.106,-0.217 0.082,-0.234C0.057,-0.25 0.045,-0.278 0.045,-0.317C0.045,-0.367 0.064,-0.403 0.102,-0.425C0.139,-0.447 0.181,-0.458 0.226,-0.458C0.253,-0.458 0.281,-0.455 0.312,-0.448C0.343,-0.441 0.369,-0.431 0.392,-0.417L0.391,-0.306L0.308,-0.296L0.306,-0.358C0.279,-0.369 0.253,-0.375 0.229,-0.375C0.209,-0.375 0.191,-0.371 0.175,-0.363C0.16,-0.354 0.152,-0.341 0.152,-0.324C0.152,-0.308 0.16,-0.297 0.177,-0.29C0.193,-0.282 0.216,-0.275 0.247,-0.268C0.277,-0.26 0.308,-0.248 0.339,-0.231C0.37,-0.214 0.385,-0.183 0.385,-0.136C0.385,-0.087 0.367,-0.051 0.331,-0.027C0.295,-0.002 0.251,0.01 0.199,0.01C0.17,0.01 0.137,0.006 0.1,-0.001C0.063,-0.008 0.032,-0.019 0.008,-0.034L0.036,-0.15L0.118,-0.142L0.111,-0.086C0.123,-0.081 0.137,-0.077 0.153,-0.075C0.168,-0.073 0.181,-0.072 0.192,-0.072Z" style="fill:#a6a6a6;fill-rule:nonzero;"/>
            </g>
            <g transform="matrix(12,0,0,12,220.552,105.582)">
                <path d="M0.021,-0.192C0.021,-0.261 0.041,-0.323 0.08,-0.377C0.118,-0.431 0.178,-0.458 0.259,-0.458C0.326,-0.458 0.375,-0.438 0.405,-0.399C0.435,-0.36 0.45,-0.31 0.45,-0.251C0.45,-0.175 0.428,-0.113 0.385,-0.064C0.341,-0.015 0.282,0.01 0.209,0.01C0.148,0.01 0.102,-0.008 0.07,-0.044C0.037,-0.08 0.021,-0.129 0.021,-0.192ZM0.132,-0.2C0.132,-0.161 0.138,-0.13 0.15,-0.107C0.162,-0.084 0.185,-0.072 0.219,-0.072C0.262,-0.072 0.293,-0.09 0.312,-0.125C0.331,-0.16 0.34,-0.201 0.34,-0.248C0.34,-0.333 0.309,-0.375 0.248,-0.375C0.171,-0.375 0.132,-0.317 0.132,-0.2Z" style="fill:#a6a6a6;fill-rule:nonzero;"/>
            </g>
            <g transform="matrix(12,0,0,12,226.252,105.582)">
                <path d="M0.478,-0.449C0.471,-0.424 0.464,-0.398 0.458,-0.373C0.451,-0.348 0.447,-0.322 0.444,-0.297L0.417,-0.082L0.478,-0.082L0.471,-0.022L0.445,-0L0.321,-0L0.319,-0.091C0.305,-0.064 0.286,-0.04 0.262,-0.02C0.238,-0 0.207,0.01 0.17,0.01C0.121,0.01 0.084,-0.008 0.059,-0.044C0.034,-0.08 0.021,-0.126 0.021,-0.181C0.021,-0.22 0.028,-0.262 0.042,-0.305C0.056,-0.347 0.078,-0.384 0.109,-0.413C0.139,-0.443 0.179,-0.458 0.229,-0.458C0.296,-0.458 0.339,-0.43 0.358,-0.374C0.361,-0.387 0.364,-0.399 0.367,-0.411C0.37,-0.424 0.374,-0.436 0.379,-0.449L0.478,-0.449ZM0.244,-0.375C0.203,-0.375 0.174,-0.356 0.157,-0.317C0.14,-0.278 0.132,-0.237 0.132,-0.194C0.132,-0.113 0.158,-0.072 0.209,-0.072C0.24,-0.072 0.266,-0.086 0.287,-0.114C0.308,-0.141 0.322,-0.17 0.329,-0.2L0.337,-0.261C0.338,-0.296 0.33,-0.324 0.312,-0.344C0.293,-0.365 0.271,-0.375 0.244,-0.375Z" style="fill:#a6a6a6;fill-rule:nonzero;"/>
            </g>
        </g>
        <g id="Background" transform="matrix(0.254907,0,0,0.295938,222.613,183.55)">
            <path d="M356,68C371.833,68.098 490.333,69.333 522,102C553.667,134.667 550,262 550,262C549.902,277.833 548.667,396.333 516,428C483.333,459.667 356,456 356,456C340.167,455.902 221.667,454.667 190,422C158.333,389.333 162,262 162,262C162.098,246.167 163.333,127.667 196,96C228.667,64.333 356,68 356,68Z" style="fill:#f2af0d;"/>
        </g>
        <g transform="matrix(0.807918,0,0,0.937965,264.809,228.961)">
            <g transform="matrix(64,0,0,64,146.799,51.5637)">
                <path d="M0.375,-0.275C0.375,-0.33 0.368,-0.369 0.355,-0.394C0.341,-0.418 0.315,-0.43 0.278,-0.43C0.265,-0.43 0.25,-0.429 0.234,-0.427C0.218,-0.425 0.206,-0.423 0.198,-0.422L0.198,-0L0.077,-0L0.077,-0.506C0.1,-0.513 0.131,-0.519 0.169,-0.525C0.206,-0.531 0.246,-0.534 0.288,-0.534C0.324,-0.534 0.354,-0.529 0.377,-0.52C0.4,-0.511 0.419,-0.498 0.434,-0.483C0.441,-0.488 0.451,-0.494 0.462,-0.5C0.473,-0.506 0.486,-0.511 0.5,-0.517C0.514,-0.522 0.529,-0.526 0.545,-0.529C0.56,-0.532 0.576,-0.534 0.592,-0.534C0.633,-0.534 0.666,-0.528 0.693,-0.517C0.719,-0.505 0.74,-0.489 0.754,-0.468C0.77,-0.447 0.78,-0.421 0.786,-0.392C0.791,-0.362 0.794,-0.329 0.794,-0.294L0.794,-0L0.673,-0L0.673,-0.275C0.673,-0.33 0.666,-0.369 0.653,-0.394C0.64,-0.418 0.614,-0.43 0.576,-0.43C0.557,-0.43 0.538,-0.427 0.521,-0.421C0.504,-0.414 0.491,-0.408 0.482,-0.402C0.487,-0.385 0.491,-0.368 0.493,-0.349C0.495,-0.33 0.496,-0.31 0.496,-0.289L0.496,-0L0.375,-0L0.375,-0.275Z" style="fill:#404040;fill-rule:nonzero;"/>
            </g>
            <g transform="matrix(64,0,0,64,201.711,51.5637)">
                <path d="M0.261,-0.085C0.298,-0.085 0.327,-0.087 0.346,-0.091L0.346,-0.225C0.339,-0.227 0.33,-0.229 0.317,-0.231C0.304,-0.233 0.29,-0.234 0.275,-0.234C0.262,-0.234 0.248,-0.233 0.234,-0.231C0.221,-0.229 0.209,-0.225 0.198,-0.22C0.187,-0.215 0.178,-0.207 0.171,-0.198C0.164,-0.188 0.161,-0.176 0.161,-0.161C0.161,-0.132 0.17,-0.113 0.188,-0.102C0.206,-0.091 0.23,-0.085 0.261,-0.085ZM0.251,-0.536C0.291,-0.536 0.325,-0.531 0.352,-0.521C0.379,-0.511 0.401,-0.497 0.418,-0.479C0.434,-0.461 0.446,-0.439 0.453,-0.413C0.46,-0.388 0.463,-0.36 0.463,-0.329L0.463,-0.012C0.444,-0.008 0.416,-0.003 0.379,0.002C0.341,0.008 0.298,0.011 0.251,0.011C0.22,0.011 0.191,0.008 0.165,0.002C0.139,-0.004 0.117,-0.014 0.099,-0.027C0.08,-0.04 0.066,-0.058 0.056,-0.079C0.045,-0.1 0.04,-0.127 0.04,-0.158C0.04,-0.188 0.046,-0.213 0.058,-0.234C0.069,-0.255 0.085,-0.272 0.105,-0.284C0.125,-0.298 0.148,-0.307 0.174,-0.313C0.201,-0.318 0.228,-0.321 0.257,-0.321C0.27,-0.321 0.284,-0.32 0.299,-0.319C0.314,-0.317 0.329,-0.314 0.346,-0.31L0.346,-0.33C0.346,-0.344 0.344,-0.357 0.341,-0.37C0.338,-0.383 0.332,-0.394 0.324,-0.404C0.315,-0.413 0.304,-0.421 0.291,-0.426C0.277,-0.431 0.26,-0.434 0.239,-0.434C0.211,-0.434 0.185,-0.432 0.162,-0.428C0.139,-0.424 0.12,-0.419 0.105,-0.414L0.09,-0.512C0.105,-0.517 0.128,-0.523 0.157,-0.528C0.186,-0.533 0.218,-0.536 0.251,-0.536Z" style="fill:#404040;fill-rule:nonzero;"/>
            </g>
            <g transform="matrix(64,0,0,64,235.439,51.5637)">
                <path d="M0.198,-0.319C0.213,-0.335 0.23,-0.352 0.247,-0.371C0.264,-0.389 0.281,-0.407 0.298,-0.426C0.315,-0.444 0.331,-0.462 0.345,-0.478C0.361,-0.496 0.373,-0.51 0.384,-0.523L0.527,-0.523C0.494,-0.486 0.459,-0.447 0.422,-0.407C0.385,-0.367 0.348,-0.328 0.311,-0.29C0.33,-0.273 0.351,-0.253 0.373,-0.23C0.395,-0.206 0.417,-0.181 0.437,-0.154C0.458,-0.127 0.477,-0.101 0.495,-0.074C0.513,-0.047 0.528,-0.023 0.54,-0L0.4,-0C0.388,-0.021 0.374,-0.042 0.359,-0.065C0.343,-0.088 0.326,-0.11 0.308,-0.131C0.29,-0.152 0.272,-0.172 0.253,-0.192C0.234,-0.211 0.216,-0.227 0.198,-0.24L0.198,-0L0.077,-0L0.077,-0.756L0.198,-0.776L0.198,-0.319Z" style="fill:#404040;fill-rule:nonzero;"/>
            </g>
            <g transform="matrix(64,0,0,64,268.783,51.5637)">
                <path d="M0.048,-0.259C0.048,-0.305 0.055,-0.345 0.069,-0.38C0.082,-0.415 0.1,-0.444 0.123,-0.467C0.146,-0.49 0.172,-0.507 0.201,-0.519C0.23,-0.53 0.26,-0.536 0.291,-0.536C0.363,-0.536 0.419,-0.514 0.46,-0.469C0.5,-0.424 0.52,-0.358 0.52,-0.269C0.52,-0.262 0.52,-0.255 0.52,-0.247C0.519,-0.238 0.519,-0.231 0.518,-0.224L0.173,-0.224C0.176,-0.182 0.191,-0.15 0.218,-0.127C0.244,-0.103 0.282,-0.092 0.332,-0.092C0.361,-0.092 0.388,-0.095 0.412,-0.1C0.437,-0.105 0.456,-0.111 0.47,-0.117L0.486,-0.018C0.479,-0.015 0.47,-0.011 0.459,-0.008C0.447,-0.004 0.434,-0.001 0.419,0.002C0.404,0.005 0.387,0.008 0.37,0.01C0.353,0.012 0.335,0.013 0.317,0.013C0.271,0.013 0.231,0.006 0.197,-0.008C0.163,-0.021 0.135,-0.04 0.113,-0.065C0.091,-0.089 0.075,-0.117 0.064,-0.151C0.053,-0.184 0.048,-0.22 0.048,-0.259ZM0.399,-0.313C0.399,-0.33 0.397,-0.345 0.392,-0.361C0.387,-0.376 0.381,-0.389 0.372,-0.4C0.363,-0.41 0.352,-0.419 0.339,-0.426C0.326,-0.432 0.31,-0.435 0.292,-0.435C0.273,-0.435 0.257,-0.432 0.243,-0.425C0.229,-0.418 0.217,-0.408 0.207,-0.397C0.198,-0.386 0.19,-0.373 0.185,-0.358C0.18,-0.343 0.176,-0.328 0.174,-0.313L0.399,-0.313Z" style="fill:#404040;fill-rule:nonzero;"/>
            </g>
            <g transform="matrix(64,0,0,64,304.879,51.5637)">
                <path d="M0.219,-0L0.07,-0L0.07,-0.526L0.219,-0.526L0.219,-0ZM0.233,-0.678C0.233,-0.651 0.224,-0.629 0.206,-0.614C0.189,-0.598 0.168,-0.59 0.144,-0.59C0.12,-0.59 0.099,-0.598 0.082,-0.614C0.064,-0.629 0.055,-0.651 0.055,-0.678C0.055,-0.705 0.064,-0.727 0.082,-0.743C0.099,-0.758 0.12,-0.766 0.144,-0.766C0.168,-0.766 0.189,-0.758 0.206,-0.743C0.224,-0.727 0.233,-0.705 0.233,-0.678Z" style="fill:#404040;fill-rule:nonzero;"/>
            </g>
            <g transform="matrix(64,0,0,64,322.927,51.5637)">
                <path d="M0.045,-0.263C0.045,-0.301 0.051,-0.337 0.064,-0.371C0.076,-0.404 0.094,-0.434 0.117,-0.459C0.14,-0.484 0.169,-0.503 0.202,-0.518C0.235,-0.533 0.273,-0.54 0.316,-0.54C0.344,-0.54 0.37,-0.538 0.393,-0.533C0.416,-0.528 0.439,-0.52 0.461,-0.511L0.43,-0.392C0.416,-0.397 0.401,-0.402 0.384,-0.406C0.367,-0.41 0.349,-0.412 0.328,-0.412C0.284,-0.412 0.251,-0.398 0.23,-0.371C0.208,-0.344 0.197,-0.308 0.197,-0.263C0.197,-0.216 0.207,-0.179 0.228,-0.153C0.248,-0.127 0.283,-0.114 0.334,-0.114C0.352,-0.114 0.371,-0.116 0.392,-0.119C0.413,-0.122 0.432,-0.128 0.449,-0.135L0.47,-0.013C0.453,-0.006 0.431,0.001 0.405,0.006C0.379,0.011 0.35,0.014 0.319,0.014C0.271,0.014 0.23,0.007 0.195,-0.008C0.16,-0.022 0.132,-0.041 0.11,-0.066C0.087,-0.091 0.071,-0.12 0.061,-0.154C0.05,-0.187 0.045,-0.224 0.045,-0.263Z" style="fill:#404040;fill-rule:nonzero;"/>
            </g>
            <g transform="matrix(64,0,0,64,352.879,51.5637)">
                <path d="M0.562,-0.264C0.562,-0.223 0.556,-0.185 0.544,-0.151C0.532,-0.116 0.515,-0.087 0.492,-0.063C0.469,-0.038 0.442,-0.019 0.41,-0.006C0.379,0.007 0.343,0.014 0.304,0.014C0.265,0.014 0.23,0.007 0.199,-0.006C0.167,-0.019 0.14,-0.038 0.117,-0.063C0.094,-0.087 0.077,-0.116 0.064,-0.151C0.051,-0.185 0.045,-0.223 0.045,-0.264C0.045,-0.305 0.051,-0.343 0.065,-0.377C0.078,-0.411 0.096,-0.44 0.118,-0.464C0.141,-0.488 0.169,-0.507 0.201,-0.52C0.232,-0.533 0.267,-0.54 0.304,-0.54C0.342,-0.54 0.377,-0.533 0.408,-0.52C0.44,-0.507 0.467,-0.488 0.49,-0.464C0.513,-0.44 0.53,-0.411 0.543,-0.377C0.556,-0.343 0.562,-0.305 0.562,-0.264ZM0.41,-0.264C0.41,-0.31 0.401,-0.346 0.383,-0.373C0.364,-0.399 0.338,-0.412 0.304,-0.412C0.27,-0.412 0.244,-0.399 0.225,-0.373C0.206,-0.346 0.197,-0.31 0.197,-0.264C0.197,-0.218 0.206,-0.182 0.225,-0.155C0.244,-0.128 0.27,-0.114 0.304,-0.114C0.338,-0.114 0.364,-0.128 0.383,-0.155C0.401,-0.182 0.41,-0.218 0.41,-0.264Z" style="fill:#404040;fill-rule:nonzero;"/>
            </g>
            <g transform="matrix(64,0,0,64,391.279,51.5637)">
                <path d="M0.07,-0.508C0.095,-0.515 0.128,-0.522 0.168,-0.529C0.208,-0.535 0.25,-0.538 0.294,-0.538C0.339,-0.538 0.376,-0.532 0.406,-0.521C0.435,-0.509 0.459,-0.492 0.476,-0.471C0.493,-0.45 0.506,-0.424 0.513,-0.395C0.52,-0.366 0.524,-0.333 0.524,-0.297L0.524,-0L0.375,-0L0.375,-0.279C0.375,-0.327 0.369,-0.361 0.356,-0.381C0.343,-0.401 0.32,-0.411 0.285,-0.411C0.274,-0.411 0.263,-0.41 0.251,-0.409C0.239,-0.408 0.228,-0.407 0.219,-0.406L0.219,-0L0.07,-0L0.07,-0.508Z" style="fill:#404040;fill-rule:nonzero;"/>
            </g>
        </g>
        <g transform="matrix(2.15445,0,0,2.47891,-535.56,-617.151)">
            <path d="M405,357L387,340L387,364L394,359L400,368" style="fill:none;stroke:#fff;stroke-width:3.39px;"/>
        </g>
    </g>
</svg>
